<svg preserveAspectRatio="none" width="100%" height="100%" overflow="visible" style="display: block;" viewBox="0 0 19 19" fill="none" xmlns="http://www.w3.org/2000/svg">
<g id="SVG">
<path id="Vector" d="M17.8672 2.99219L11.3047 9.55469L17.8125 16.0625C18.3594 16.5547 18.3594 17.375 17.8125 17.8672C17.3203 18.4141 16.5 18.4141 16.0078 17.8672L9.44531 11.3594L2.9375 17.8672C2.44531 18.4141 1.625 18.4141 1.13281 17.8672C0.585938 17.375 0.585938 16.5547 1.13281 16.0078L7.64062 9.5L1.13281 2.99219C0.585938 2.5 0.585938 1.67969 1.13281 1.13281C1.625 0.640625 2.44531 0.640625 2.99219 1.13281L9.5 7.69531L16.0078 1.1875C16.5 0.640625 17.3203 0.640625 17.8672 1.1875C18.3594 1.67969 18.3594 2.5 17.8672 2.99219Z" fill="var(--fill-0, white)"/>
</g>
</svg>
