<svg width="59" height="59" viewBox="0 0 59 59" fill="none" xmlns="http://www.w3.org/2000/svg">
<g clip-path="url(#clip0_2376_1220)">
<g clip-path="url(#clip1_2376_1220)">
<g clip-path="url(#clip2_2376_1220)">
<mask id="mask0_2376_1220" style="mask-type:luminance" maskUnits="userSpaceOnUse" x="0" y="0" width="59" height="59">
<path d="M58.2876 0H0V58.2876H58.2876V0Z" fill="white"/>
</mask>
<g mask="url(#mask0_2376_1220)">
<path d="M29.1438 0C13.0467 0 0 13.0467 0 29.1438C0 45.2409 13.0467 58.2876 29.1438 58.2876C45.2409 58.2876 58.2876 45.2409 58.2876 29.1438C58.2876 13.0467 45.2409 0 29.1438 0ZM29.1438 57.6805C13.411 57.6805 0.607162 44.8766 0.607162 29.1438C0.607162 13.411 13.411 0.607162 29.1438 0.607162C44.8766 0.607162 57.6805 13.411 57.6805 29.1438C57.6805 44.8766 44.8766 57.6805 29.1438 57.6805ZM29.1438 9.10744C18.0788 9.10744 9.10744 18.0788 9.10744 29.1438C9.10744 40.2088 18.0788 49.1802 29.1438 49.1802C40.2088 49.1802 49.1802 40.2088 49.1802 29.1438C49.1802 18.0788 40.2088 9.10744 29.1438 9.10744ZM31.4462 45.6538C30.8633 46.1589 30.0618 46.4115 29.0564 46.4115H26.4675V36.1237H28.4686C29.6538 36.1237 30.5427 36.3472 31.145 36.7892C31.7473 37.2312 32.0436 37.8918 32.0436 38.7709C32.0436 39.3101 31.9222 39.7764 31.6793 40.165C31.4365 40.5633 31.0819 40.8693 30.6156 41.0928C31.179 41.3259 31.6016 41.6562 31.893 42.0837C32.1796 42.5111 32.3254 43.0211 32.3254 43.6137C32.3254 44.4638 32.0339 45.1438 31.4462 45.6489V45.6538ZM32.4322 36.1966L30.6642 31.621C30.3824 31.6696 30.091 31.6988 29.7898 31.6988C29.1826 31.6988 28.6046 31.587 28.0655 31.3879L26.2197 36.1966H25.1462L27.1815 30.9653C25.7389 30.0861 24.7722 28.5026 24.7722 26.6908C24.7722 24.6314 26.04 22.8487 27.8469 22.0861V11.8761H29.3138C29.7461 11.8761 30.159 11.9149 30.5524 11.9976C32.0776 12.3084 33.258 13.2799 33.258 15.3199C33.2385 17.4668 32.0387 18.5597 30.5524 18.8463C30.2853 18.9094 29.9939 18.9289 29.7072 18.9289H28.9203V21.7753C29.2021 21.7267 29.4935 21.6976 29.7898 21.6976C31.111 21.6976 32.3059 22.2125 33.1948 23.0382L32.4905 23.8445C31.7862 23.1596 30.839 22.7516 29.7898 22.7516C27.6234 22.7516 25.8506 24.5245 25.8506 26.6908C25.8506 28.0412 26.5403 29.2361 27.5846 29.9501L29.3187 25.4959L31.2227 30.3582C31.689 30.1735 32.1165 29.9015 32.4759 29.5615L33.2191 30.3436C32.7528 30.7807 32.2088 31.1207 31.6161 31.3587L33.5105 36.2015H32.4371L32.4322 36.1966ZM28.454 30.3873C28.8718 30.5427 29.3235 30.6301 29.7947 30.6301C29.9549 30.6301 30.1152 30.6156 30.2707 30.5961L29.3187 28.1335L28.454 30.3873ZM30.4941 40.2573C30.8973 39.9221 31.1013 39.4461 31.1013 38.8292C31.1013 38.2124 30.9021 37.7509 30.499 37.4352C30.0959 37.1146 29.513 36.9543 28.7455 36.9543H27.3903V40.7673H28.7746C29.5178 40.7673 30.091 40.5973 30.4941 40.2622V40.2573ZM29.0855 41.5931H27.3903V45.5518H28.8669C29.7024 45.5518 30.3241 45.3964 30.7321 45.0758C31.145 44.7552 31.349 44.2743 31.349 43.6283C31.349 42.9822 31.1498 42.4868 30.7516 42.1274C30.3533 41.768 29.7947 41.5882 29.0855 41.5882V41.5931ZM30.5573 17.8797C31.5093 17.6125 32.2282 16.8451 32.2088 15.3393C32.1893 13.9162 31.4656 13.2362 30.5573 12.9884C30.227 12.8816 29.8529 12.867 29.4838 12.867H28.9252V18.006H29.6684C29.9744 18.006 30.2658 17.9623 30.5524 17.8846L30.5573 17.8797ZM37.2409 3.96842L36.3957 3.71098L35.2883 7.37338L36.1334 7.63079L37.2409 3.96842ZM33.4085 6.66907C33.7485 6.55736 34.0205 6.37278 34.2391 6.11049C34.4529 5.84819 34.5888 5.53246 34.6423 5.15359C34.6957 4.77472 34.6569 4.42986 34.5208 4.11899C34.3848 3.80813 34.1711 3.55554 33.8797 3.35154C33.5882 3.14753 33.2336 3.02124 32.8208 2.96296L31.1013 2.72009L30.567 6.50878L32.2865 6.75165C32.6993 6.80994 33.0733 6.78079 33.4085 6.66907ZM31.8736 3.56526L32.6751 3.67698C33.054 3.73041 33.3405 3.88099 33.5348 4.12385C33.7291 4.36671 33.8019 4.66787 33.7534 5.02731C33.7048 5.38674 33.5494 5.65876 33.2919 5.83847C33.0345 6.0182 32.7188 6.08134 32.3399 6.02791L31.5385 5.91619L31.8687 3.57012L31.8736 3.56526ZM29.5664 6.4845L29.5324 5.77533L27.4535 5.88219L27.4097 4.99816L29.1826 4.91073L29.1487 4.22099L27.3757 4.31328L27.332 3.48268L29.3381 3.38068L29.3041 2.67152L26.4189 2.81724L26.6132 6.63508L29.5713 6.4845H29.5664ZM38.8292 8.69942L40.1019 5.86762L41.219 6.37278L41.5153 5.71705L38.4747 4.34729L38.1784 5.00302L39.2955 5.50332L38.023 8.33513L38.8292 8.69942ZM43.0357 11.2301L43.4291 10.6424L41.6999 9.48143L42.1905 8.74802L43.6671 9.73891L44.0509 9.16573L42.5742 8.17972L43.0357 7.48996L44.7066 8.60711L45.1 8.01943L42.7006 6.41164L40.5731 9.58831L43.0357 11.2349V11.2301ZM49.8991 18.7881L50.6422 18.1906L51.5554 18.4626L51.2154 17.5688L51.7594 16.7819L50.8073 16.8305L50.2293 16.0728L49.9816 16.9957L49.083 17.3114L49.8796 17.8311L49.9039 18.7832L49.8991 18.7881ZM45.0417 13.0613C45.3381 13.3527 45.6538 13.5568 45.9889 13.6684C46.3241 13.7801 46.6592 13.7947 46.9895 13.717C47.3198 13.6393 47.6161 13.4644 47.8881 13.1925C48.1601 12.9204 48.3301 12.6193 48.4079 12.2938C48.4856 11.9684 48.4661 11.6333 48.3545 11.2932C48.2427 10.9581 48.0339 10.6424 47.7424 10.346L46.5086 9.12201L43.8128 11.8373L45.0466 13.0613H45.0417ZM46.6252 10.2635L47.1984 10.8318C47.4704 11.1038 47.6113 11.3903 47.621 11.7061C47.6307 12.0218 47.5093 12.3036 47.2518 12.561C46.9944 12.8184 46.7126 12.9447 46.3969 12.935C46.086 12.9253 45.7946 12.7844 45.5226 12.5173L44.9494 11.949L46.6204 10.2683L46.6252 10.2635ZM23.2762 7.29564L23.0285 6.25621L23.7765 6.08134L23.8202 6.07162L24.7819 6.94109L25.7097 6.72251L24.5925 5.7219C24.8111 5.55675 24.9665 5.3576 25.0491 5.12931C25.1365 4.89616 25.1462 4.64358 25.0782 4.36671C25.0103 4.08984 24.8888 3.86641 24.7091 3.6964C24.5294 3.5264 24.3059 3.41468 24.0388 3.36125C23.7717 3.30782 23.4705 3.32239 23.1402 3.40011L21.5276 3.77898L22.4067 7.49965L23.2664 7.29564H23.2762ZM23.2616 4.10928C23.519 4.04613 23.7279 4.05585 23.893 4.13842C24.0582 4.22099 24.1602 4.36186 24.2088 4.57072C24.2573 4.77472 24.2282 4.94959 24.1214 5.09531C24.0145 5.24102 23.8299 5.34303 23.5725 5.40618L22.873 5.57133L22.567 4.27443L23.2713 4.10928H23.2616ZM14.5282 10.6812C14.8488 10.8269 15.1839 10.8755 15.5385 10.8366C15.8931 10.7978 16.2331 10.6666 16.5537 10.4432C16.8257 10.2537 17.0394 10.0352 17.1948 9.78744C17.3503 9.53971 17.4377 9.26773 17.462 8.98598L16.6945 8.87917C16.6557 9.27261 16.4759 9.58343 16.1651 9.80201C15.9708 9.93804 15.7668 10.0158 15.5531 10.0352C15.3393 10.0546 15.1402 10.0206 14.9508 9.92346C14.7613 9.83115 14.5962 9.68543 14.4602 9.49119C14.3242 9.29687 14.2464 9.09287 14.2271 8.88398C14.2076 8.67028 14.2416 8.47116 14.3339 8.28172C14.4262 8.09229 14.5719 7.92711 14.7662 7.79109C15.0819 7.57251 15.4268 7.51422 15.8105 7.61141L15.9805 6.85851C15.7036 6.78079 15.4268 6.77107 15.1402 6.82936C14.8536 6.88765 14.5768 7.00908 14.2999 7.19852C13.9745 7.42198 13.7316 7.69396 13.5713 8.01455C13.411 8.33513 13.3382 8.6654 13.3624 9.01513C13.3867 9.36485 13.5033 9.6952 13.7218 10.006C13.9356 10.3169 14.2027 10.5452 14.5233 10.6909L14.5282 10.6812ZM18.1566 8.31087C18.4431 8.50999 18.7637 8.62657 19.1232 8.65083C19.4778 8.67516 19.8372 8.60711 20.1918 8.4517C20.493 8.31567 20.7455 8.14081 20.9447 7.92223C21.1438 7.70365 21.2799 7.46081 21.3527 7.17909L20.6192 6.93137C20.5075 7.31509 20.2744 7.58227 19.9295 7.73768C19.7109 7.8348 19.4972 7.87371 19.2883 7.85425C19.0746 7.8348 18.8852 7.76194 18.7152 7.63568C18.5451 7.50941 18.4092 7.33936 18.312 7.1208C18.2149 6.90708 18.176 6.6885 18.1954 6.47964C18.2149 6.26592 18.2877 6.07648 18.414 5.90648C18.5403 5.73647 18.7152 5.60047 18.9289 5.50332C19.2786 5.34789 19.6332 5.35275 19.9878 5.51789L20.2938 4.80873C20.0364 4.68244 19.7644 4.62415 19.4729 4.62415C19.1815 4.62415 18.8852 4.69701 18.5792 4.83301C18.2198 4.9933 17.9331 5.21674 17.7146 5.49847C17.496 5.78019 17.3648 6.09591 17.326 6.44564C17.2823 6.79537 17.3406 7.14023 17.496 7.48508C17.6515 7.82999 17.8748 8.10198 18.1615 8.30598L18.1566 8.31087ZM12.2016 14.1299L11.8566 13.3138L13.105 12.051L13.9259 12.3861L14.5768 11.7255L10.6521 10.2537L10.04 10.8755L11.5604 14.7759L12.1967 14.1299H12.2016ZM12.4298 11.779L11.575 12.6435L10.9581 11.1815L12.425 11.779H12.4298ZM6.74679 18.4626L7.65994 18.1906L8.40311 18.7881L8.42744 17.836L9.22401 17.3163L8.32544 17.0005L8.07772 16.0777L7.49965 16.8354L6.54764 16.7868L7.09166 17.5737L6.75165 18.4675L6.74679 18.4626Z" fill="white"/>
<path d="M4.16753 21.7413C4.4104 21.4888 4.69698 21.3139 5.02727 21.2216C5.35758 21.1293 5.70244 21.1293 6.06188 21.2216C6.42132 21.3139 6.72247 21.4888 6.96534 21.7316C7.20821 21.9745 7.3685 22.2708 7.45593 22.6157C7.53848 22.9605 7.53367 23.3151 7.43648 23.6842C7.35881 23.9708 7.2422 24.2234 7.08191 24.4372C6.92162 24.6509 6.72247 24.816 6.48932 24.9374L6.24646 24.5051C6.61076 24.306 6.85362 23.9951 6.96048 23.5822C7.03334 23.3054 7.0382 23.0431 6.97506 22.7905C6.91191 22.5379 6.78562 22.3194 6.60104 22.1348C6.41647 21.9502 6.19303 21.8239 5.92588 21.7559C5.65873 21.6831 5.40129 21.683 5.14871 21.751C4.89613 21.819 4.68241 21.9454 4.50269 22.1348C4.32297 22.3242 4.19182 22.5574 4.11896 22.8294C4.00724 23.2423 4.06553 23.6259 4.28411 23.9854L3.86152 24.238C3.7158 24.0194 3.62837 23.7765 3.58952 23.5094C3.55066 23.2423 3.57494 22.9654 3.65266 22.674C3.74981 22.3048 3.91981 21.9939 4.16268 21.7365L4.16753 21.7413Z" fill="white"/>
<path d="M3.22994 26.4184C3.41937 26.122 3.66709 25.8938 3.97796 25.7335C4.28883 25.5732 4.62399 25.51 4.99314 25.5343C5.36229 25.5586 5.68774 25.6655 5.97431 25.8646C6.26089 26.0589 6.47947 26.3163 6.63005 26.6369C6.78063 26.9575 6.84377 27.3072 6.81463 27.6958C6.79034 28.0795 6.68348 28.4196 6.49404 28.7158C6.30461 29.0121 6.05689 29.2404 5.75088 29.3959C5.44487 29.5513 5.10486 29.6193 4.7357 29.595C4.36655 29.5708 4.03625 29.4639 3.74967 29.2696C3.46309 29.0753 3.24937 28.8178 3.09879 28.4973C2.94822 28.1767 2.88507 27.8269 2.90936 27.4433C2.93365 27.0595 3.0405 26.7147 3.22994 26.4184ZM3.53595 28.2398C3.64767 28.473 3.81281 28.6575 4.02654 28.8033C4.24026 28.949 4.48798 29.0267 4.76485 29.0462C5.04171 29.0656 5.29429 29.017 5.52745 28.9005C5.7606 28.7839 5.94517 28.6187 6.08603 28.405C6.2269 28.1912 6.30947 27.9435 6.32404 27.6618C6.34347 27.3801 6.2949 27.1227 6.18318 26.8895C6.07146 26.6564 5.90631 26.4669 5.69259 26.3212C5.47887 26.1803 5.23115 26.0978 4.95428 26.0783C4.67742 26.0589 4.42483 26.1075 4.19168 26.224C3.95853 26.3406 3.77396 26.5058 3.6331 26.7244C3.49223 26.9429 3.40966 27.1907 3.39509 27.4724C3.37566 27.7541 3.42423 28.0067 3.53595 28.2398Z" fill="white"/>
<path d="M3.50768 34.9725L6.25691 34.511L3.74083 33.5299L3.69712 33.2821L5.74689 31.5383L3.01224 31.9949L2.9248 31.4752L6.69893 30.8486L6.77179 31.2906L4.38199 33.3064L7.29149 34.4187L7.36435 34.8607L3.59025 35.4922L3.50282 34.9725H3.50768Z" fill="white"/>
<path d="M8.45643 38.7657C8.33986 39.1154 8.09214 39.3728 7.70839 39.5234C7.32471 39.6739 6.96523 39.6642 6.63979 39.4894C6.31436 39.3145 6.06178 38.9939 5.8772 38.5373L5.52747 37.6582L4.45401 38.0905L4.25 37.5853L7.8007 36.167L8.35443 37.5513C8.53898 38.0127 8.57301 38.4159 8.45643 38.7705V38.7657ZM6.8098 38.9988C7.01381 39.1105 7.24696 39.1202 7.50438 39.0182C7.76186 38.9162 7.92696 38.7511 7.99501 38.5276C8.06299 38.3042 8.03385 38.0322 7.90758 37.7116L7.56267 36.847L5.96948 37.4833L6.31436 38.3479C6.44064 38.6685 6.61065 38.8871 6.81465 39.0036L6.8098 38.9988Z" fill="white"/>
<path d="M6.81454 42.5787C6.78539 42.229 6.84854 41.8938 6.99911 41.5829C7.14969 41.2721 7.38288 41.0146 7.68889 40.8106C7.9949 40.6066 8.32029 40.4998 8.67002 40.4803C9.01493 40.4658 9.3452 40.5386 9.65602 40.7038C9.96691 40.8689 10.2292 41.1118 10.443 41.4372C10.6518 41.7578 10.7733 42.0929 10.8024 42.4427C10.8315 42.7924 10.7684 43.1227 10.6178 43.4335C10.4672 43.7444 10.2341 44.0019 9.9232 44.2059C9.61238 44.4099 9.28692 44.5216 8.94207 44.5362C8.59716 44.5556 8.27169 44.4779 7.95599 44.3127C7.64029 44.1476 7.38288 43.9047 7.17398 43.5841C6.96026 43.2636 6.83882 42.9235 6.81454 42.5738V42.5787ZM8.16 43.8464C8.38827 43.963 8.63599 44.0164 8.89348 43.997C9.15089 43.9825 9.39861 43.8998 9.62688 43.7444C9.86003 43.5938 10.0301 43.3996 10.1467 43.1713C10.2632 42.9381 10.3118 42.6953 10.2973 42.4378C10.2778 42.1804 10.1953 41.9326 10.0398 41.6995C9.88436 41.4663 9.69493 41.2867 9.46178 41.1701C9.22863 41.0535 8.98572 40.9952 8.7283 41.0146C8.47089 41.0292 8.22317 41.1118 7.99483 41.2672C7.76656 41.4226 7.5917 41.6121 7.47512 41.8404C7.35854 42.0736 7.31002 42.3164 7.3294 42.5787C7.34885 42.841 7.43629 43.0838 7.58689 43.3219C7.73741 43.5599 7.93173 43.7299 8.16488 43.8513L8.16 43.8464Z" fill="white"/>
<path d="M10.1026 46.6692C10.1026 46.2612 10.3018 45.8629 10.6855 45.4743L12.2156 43.9297L12.6041 44.3134L11.0886 45.8435C10.5106 46.4264 10.4766 46.9704 10.9866 47.4755C11.2344 47.7233 11.4967 47.8398 11.7687 47.8253C12.0407 47.8107 12.3273 47.6601 12.6187 47.3638L14.1342 45.8338L14.513 46.2078L12.983 47.7524C12.5944 48.141 12.201 48.3402 11.793 48.345C11.3898 48.3499 11.0061 48.175 10.6418 47.8156C10.2775 47.4561 10.0978 47.0724 10.1026 46.6644V46.6692Z" fill="white"/>
<path d="M18.2822 48.8343L16.1887 52.0353L15.8147 51.7924L15.4504 48.1495L13.8912 50.5392L13.4346 50.2381L15.5281 47.0371L15.9021 47.28L16.2664 50.923L17.8256 48.5332L18.2822 48.8343Z" fill="white"/>
<path d="M19.4878 49.457L20.9888 50.0399C21.3676 50.1856 21.6736 50.3896 21.9068 50.6519C22.1399 50.9142 22.2857 51.2105 22.3439 51.5457C22.4022 51.8808 22.3634 52.2208 22.2274 52.5705C22.0913 52.9203 21.8922 53.1971 21.625 53.406C21.3579 53.6149 21.0519 53.7363 20.7022 53.7703C20.3525 53.8092 19.9882 53.7509 19.6141 53.6051L18.1084 53.0223L19.4878 49.457ZM19.7501 53.1534C20.0367 53.2652 20.3136 53.3089 20.5759 53.2798C20.8382 53.2506 21.0665 53.1632 21.2656 53.0029C21.4647 52.8474 21.6153 52.6337 21.7173 52.3714C21.8194 52.1042 21.8485 51.8517 21.8097 51.5991C21.7708 51.3514 21.6591 51.1279 21.4842 50.9337C21.3093 50.7394 21.0762 50.584 20.7896 50.4722L19.8279 50.0982L18.7884 52.7794L19.7501 53.1534Z" fill="white"/>
<path d="M23.8539 50.9434L24.3882 51.0648L23.5333 54.7952L22.999 54.6738L23.8539 50.9434Z" fill="white"/>
<path d="M28.814 51.6284L28.4838 55.4365L28.0368 55.3976L25.9968 52.357L25.749 55.1985L25.2051 55.1499L25.5354 51.3418L25.9822 51.3806L28.0223 54.4213L28.27 51.5798L28.814 51.6284Z" fill="white"/>
<path d="M33.0492 53.1777L33.5689 53.1194L33.7389 54.6009C33.5689 54.7758 33.3649 54.9215 33.1221 55.0332C32.8792 55.1449 32.6266 55.2178 32.3546 55.2469C31.9709 55.2907 31.6163 55.2469 31.2908 55.1109C30.9654 54.9798 30.6934 54.7758 30.4846 54.4989C30.2757 54.222 30.1494 53.9014 30.1057 53.5323C30.062 53.1632 30.1154 52.8183 30.2562 52.5025C30.3971 52.1868 30.6157 51.9245 30.9023 51.7254C31.1937 51.5214 31.5337 51.4 31.9174 51.3562C32.2234 51.3222 32.5052 51.3417 32.7626 51.4096C33.0201 51.4825 33.2483 51.604 33.4475 51.7739L33.1512 52.148C32.8161 51.8905 32.4274 51.7837 32 51.8322C31.7086 51.8663 31.456 51.9586 31.2423 52.1091C31.0285 52.2597 30.8682 52.454 30.7614 52.692C30.6594 52.93 30.6205 53.1874 30.6545 53.4643C30.6837 53.7412 30.7808 53.9792 30.9363 54.1881C31.0917 54.3969 31.2908 54.5524 31.5385 54.6495C31.7815 54.7515 32.0486 54.7855 32.3352 54.7515C32.6752 54.7127 32.9618 54.5961 33.1949 54.4067L33.054 53.168L33.0492 53.1777Z" fill="white"/>
<path d="M39.8586 49.2965C40.218 49.3936 40.4803 49.6268 40.6552 50.0056C40.83 50.3845 40.8398 50.7391 40.6795 51.0743C40.5192 51.4094 40.218 51.6814 39.7663 51.8903L38.9065 52.2885L39.3923 53.3377L38.8969 53.566L37.2891 50.0931L38.6442 49.4665C39.096 49.2576 39.4992 49.2042 39.8537 49.2965H39.8586ZM40.1841 50.9285C40.2861 50.7196 40.2812 50.4865 40.1646 50.2339C40.048 49.9814 39.8781 49.8308 39.6497 49.7725C39.4214 49.7142 39.1495 49.7579 38.8386 49.9036L37.9934 50.2922L38.7123 51.8514L39.5575 51.4628C39.8732 51.3171 40.0821 51.1374 40.1841 50.9285Z" fill="white"/>
<path d="M43.6178 46.3633L45.8619 49.4622L45.4199 49.7828L44.4193 48.4033L42.6415 49.6906L43.6421 51.07L43.2001 51.3906L40.9561 48.2917L41.398 47.9711L42.3598 49.3019L44.1375 48.0148L43.171 46.6839L43.613 46.3633H43.6178Z" fill="white"/>
<path d="M48.3925 45.5902L47.0082 47.0815L47.426 48.0383L47.0422 48.4512L45.415 44.58L45.7841 44.1816L49.772 45.5077L49.3834 45.9303L48.3974 45.5902H48.3925ZM47.9408 45.4348L46.0027 44.7645L46.8188 46.6443L47.9408 45.4348Z" fill="white"/>
<path d="M52.0023 42.128L50.5693 42.2008C50.5207 42.2931 50.4819 42.3611 50.4528 42.4096L49.9476 43.2111L50.9336 43.8329L50.6422 44.2943L47.4023 42.2591L48.1941 40.9962C48.4564 40.5785 48.7673 40.3113 49.117 40.1947C49.4716 40.0781 49.8213 40.1316 50.171 40.355C50.4187 40.5105 50.5936 40.7096 50.6908 40.9428C50.7879 41.1759 50.8074 41.4333 50.7442 41.7102L52.3131 41.6276L51.9974 42.1328L52.0023 42.128ZM50.2779 41.3848C50.2487 41.1516 50.1176 40.9622 49.8796 40.8116C49.6464 40.6659 49.4181 40.6271 49.1947 40.7047C48.9713 40.7825 48.7673 40.967 48.5876 41.2585L48.0921 42.0453L49.5493 42.9634L50.0447 42.1765C50.2293 41.885 50.307 41.6179 50.2779 41.3848Z" fill="white"/>
<path d="M54.382 36.5755L51.7543 35.6381L53.4738 37.7218L53.3912 37.9599L50.7536 38.4845L53.362 39.4171L53.1872 39.9125L49.5879 38.6205L49.7385 38.1979L52.8083 37.6005L50.8071 35.2107L50.9577 34.7881L54.5618 36.0752L54.3869 36.5707L54.382 36.5755Z" fill="white"/>
<path d="M54.3729 31.3197L54.1203 33.3354L55.0189 33.8698L54.9509 34.4283L51.3711 32.2328L51.4391 31.6986L55.4512 30.4502L55.3784 31.0185L54.3778 31.3148L54.3729 31.3197ZM53.9163 31.4557L51.954 32.0385L53.7123 33.0926L53.9163 31.4557Z" fill="white"/>
<path d="M55.1938 28.4929C55.0432 28.8086 54.8197 29.0612 54.5332 29.2506C54.2466 29.44 53.9163 29.5469 53.5472 29.5663C53.178 29.5857 52.8379 29.5178 52.5319 29.3575C52.2259 29.1972 51.9782 28.9688 51.7936 28.6677C51.6091 28.3666 51.5071 28.0265 51.4876 27.6428C51.4731 27.3466 51.5071 27.0697 51.5945 26.8171C51.682 26.5645 51.8179 26.3459 52.0073 26.1613L52.3716 26.4965C52.0851 26.7976 51.9539 27.1668 51.9734 27.5943C51.988 27.8759 52.0656 28.1334 52.2065 28.352C52.3474 28.5754 52.5319 28.7455 52.7603 28.862C52.9885 28.9786 53.246 29.032 53.5228 29.0174C53.7997 29.0029 54.0474 28.9251 54.2612 28.7843C54.4749 28.6435 54.6449 28.454 54.7614 28.2209C54.878 27.9828 54.9266 27.7254 54.912 27.4437C54.8878 27.0162 54.7177 26.6665 54.3971 26.3945L54.7226 26.0205C54.9266 26.1856 55.0869 26.3896 55.2035 26.6325C55.32 26.8754 55.3832 27.1474 55.3978 27.4437C55.4172 27.8274 55.3492 28.1772 55.1986 28.4929H55.1938Z" fill="white"/>
<path d="M53.3624 23.1798L54.6495 22.8786L54.771 23.4032L53.4741 23.7092L51.3952 25.7542L51.2641 25.1859L52.9495 23.5344L50.7054 22.7961L50.584 22.2715L53.3672 23.1798H53.3624Z" fill="white"/>
</g>
</g>
</g>
</g>
<defs>
<clipPath id="clip0_2376_1220">
<rect width="58.2876" height="58.2876" fill="white"/>
</clipPath>
<clipPath id="clip1_2376_1220">
<rect width="58.2876" height="58.2876" fill="white"/>
</clipPath>
<clipPath id="clip2_2376_1220">
<rect width="58.2876" height="58.2876" fill="white"/>
</clipPath>
</defs>
</svg>
