<svg width="59" height="55" viewBox="0 0 59 55" fill="none" xmlns="http://www.w3.org/2000/svg">
<g clip-path="url(#clip0_2376_1292)">
<g clip-path="url(#clip1_2376_1292)">
<g clip-path="url(#clip2_2376_1292)">
<mask id="mask0_2376_1292" style="mask-type:luminance" maskUnits="userSpaceOnUse" x="0" y="0" width="59" height="55">
<path d="M58.2876 0H0V54.3872H58.2876V0Z" fill="white"/>
</mask>
<g mask="url(#mask0_2376_1292)">
<path d="M29.1438 0.607162C44.8766 0.607162 57.6805 13.411 57.6805 29.1438C57.6805 38.9458 52.59 48.1067 44.3228 53.3137V48.9519V48.5876L44.0023 48.4175L40.3787 46.4649C46.2075 42.6762 49.7873 36.1334 49.7873 29.1438C49.7873 17.7631 40.5245 8.5003 29.1438 8.5003C17.7631 8.5003 8.5003 17.7631 8.5003 29.1438C8.5003 36.1334 12.0801 42.6762 17.9137 46.4698L14.2805 48.4516L13.9648 48.6264V53.3186C5.69761 48.1067 0.607162 38.9458 0.607162 29.1438C0.607162 13.411 13.411 0.607162 29.1438 0.607162ZM29.1438 0C13.0467 0 0 13.0467 0 29.1438C0 39.9319 5.8579 49.3501 14.567 54.3872V48.981L19.1232 46.4989C13.1342 43.0357 9.10744 36.5609 9.10744 29.1438C9.10744 18.0788 18.0788 9.10744 29.1438 9.10744C40.2088 9.10744 49.1802 18.0788 49.1802 29.1438C49.1802 36.5609 45.1534 43.0357 39.1644 46.4989L43.7157 48.9519V54.3872C52.4248 49.3501 58.2876 39.9319 58.2876 29.1438C58.2876 13.0467 45.2409 0 29.1438 0Z" fill="white"/>
<path d="M16.1992 13.8571C16.4421 13.6531 16.6898 13.4491 16.9424 13.2549C16.6898 13.4491 16.4421 13.6483 16.1992 13.8571Z" fill="white"/>
<path d="M15.4854 14.4938C15.7185 14.2752 15.9565 14.0663 16.1994 13.8574C15.9565 14.0614 15.7185 14.2752 15.4854 14.4938Z" fill="white"/>
<path d="M39.7431 23.7129L38.4316 26.977H41.0546L39.7431 23.7129Z" fill="white"/>
<path d="M42.0938 13.8574C42.3367 14.0614 42.5746 14.2752 42.8078 14.4938C42.5746 14.2752 42.3367 14.0663 42.0938 13.8574Z" fill="white"/>
<path d="M41.3457 13.2549C41.5983 13.4491 41.846 13.6483 42.0889 13.8571C41.846 13.6531 41.5983 13.4491 41.3457 13.2549Z" fill="white"/>
<path d="M30.3485 28.0409C30.8779 27.5455 31.1402 26.8606 31.1402 25.9863C31.1402 25.112 30.8731 24.4271 30.3485 23.9316C29.8191 23.4362 29.1147 23.1885 28.2404 23.1885H26.4189V28.7841H28.2404C29.1147 28.7841 29.8142 28.5364 30.3485 28.0409Z" fill="white"/>
<path d="M49.1802 29.143C49.1802 23.3579 46.7273 18.1509 42.8074 14.4933V17.3592H39.7716V12.1618C36.9058 10.3647 33.5591 9.27658 29.9598 9.13086C30.193 9.14062 30.431 9.15519 30.6641 9.17457V17.3592H27.6283V9.17457C27.8615 9.15519 28.0946 9.14062 28.3326 9.13086C24.7383 9.27658 21.3867 10.3647 18.5209 12.1618V17.3592H15.4851V14.4933C11.5653 18.1509 9.1123 23.3579 9.1123 29.143C9.1123 36.5601 13.139 43.0349 19.1281 46.4981L14.601 48.9656C18.6764 51.9626 23.7037 53.7306 29.1487 53.7306C34.5937 53.7306 39.6404 51.9529 43.7157 48.9462L39.1693 46.4932C45.1583 43.03 49.185 36.5552 49.185 29.1381L49.1802 29.143ZM41.1851 20.8856L45.7023 31.0859H42.7005L41.8991 29.1041H37.5858L36.7843 31.0859H33.8408L38.3435 20.8856H41.1851ZM33.6951 9.63119C34.7394 9.87403 35.7546 10.1995 36.7309 10.5978V17.3543H33.6951V9.63119ZM28.3618 20.8856C29.4789 20.8856 30.4698 21.0944 31.3345 21.5122C32.1991 21.9299 32.8694 22.5224 33.3454 23.2899C33.8214 24.0574 34.0594 24.9559 34.0594 25.9857C34.0594 27.0155 33.8214 27.914 33.3454 28.6815C32.8694 29.449 32.1991 30.0415 31.3345 30.4593C30.4698 30.877 29.4789 31.0859 28.3618 31.0859H23.5385V20.8856H28.3618ZM21.5518 10.5978C22.5281 10.1995 23.5434 9.87403 24.5877 9.63119V17.3543H21.5518V10.5978ZM17.0491 31.0859H14.1639V20.8856H22.1638V23.1151H17.0491V25.3591H21.5518V27.5886H17.0491V31.0859ZM22.5039 39.7659C22.3096 40.0816 22.0181 40.3293 21.6199 40.5187C21.2264 40.7082 20.7358 40.8005 20.1529 40.8005C19.7255 40.8005 19.3029 40.7471 18.8852 40.6451C18.4675 40.5431 18.108 40.3925 17.8068 40.203L18.4189 38.9158C18.6618 39.0761 18.9289 39.2025 19.2203 39.2899C19.5118 39.3773 19.8032 39.421 20.0995 39.421C20.3958 39.421 20.629 39.3627 20.8039 39.251C20.9787 39.1393 21.0661 38.9839 21.0661 38.7799C21.0661 38.5759 20.9787 38.4253 20.8087 38.3233C20.6387 38.2213 20.3278 38.1679 19.8906 38.1679H18.2489L18.55 34.6269H22.4068V35.9529H19.9684L19.8906 36.8369H20.2986C21.1487 36.8369 21.7753 37.0118 22.1784 37.3566C22.5864 37.7015 22.7904 38.163 22.7904 38.741C22.7904 39.115 22.6933 39.4599 22.499 39.7756L22.5039 39.7659ZM24.7722 48.0913L24.6848 49.0433L23.9853 48.3973L23.0527 48.6061L23.4511 47.7416L22.9653 46.9207L23.9125 47.0324L24.5439 46.3135L24.7285 47.251L25.6028 47.6298L24.7722 48.0961V48.0913ZM26.0254 40.7956C25.5057 40.7956 25.0443 40.6693 24.6411 40.4216C24.2379 40.1739 23.9222 39.8096 23.6939 39.3336C23.4656 38.8575 23.3539 38.2941 23.3539 37.6433C23.3539 36.9923 23.4656 36.4289 23.6939 35.9529C23.9222 35.4769 24.2379 35.1174 24.6411 34.8648C25.0443 34.6171 25.5057 34.4909 26.0254 34.4909C26.5452 34.4909 26.9969 34.6171 27.4 34.8648C27.8032 35.1126 28.1189 35.4769 28.3472 35.9529C28.5755 36.4289 28.6873 36.9923 28.6873 37.6433C28.6873 38.2941 28.5755 38.8575 28.3472 39.3336C28.1189 39.8096 27.8032 40.169 27.4 40.4216C26.9969 40.6693 26.5403 40.7956 26.0254 40.7956ZM29.989 49.5194L29.1438 49.0773L28.2986 49.5194L28.4589 48.577L27.774 47.9116L28.7164 47.7755L29.139 46.9207L29.5616 47.7755L30.5039 47.9116L29.819 48.577L29.9793 49.5194H29.989ZM30.023 40.6402C29.6053 40.5382 29.241 40.3876 28.935 40.1982L29.5567 38.911C29.7947 39.0713 30.0618 39.1976 30.3581 39.285C30.6545 39.3724 30.9459 39.4161 31.2373 39.4161C31.5288 39.4161 31.7667 39.3627 31.9368 39.251C32.1116 39.1393 32.1942 38.9839 32.1942 38.7847C32.1942 38.3912 31.8833 38.197 31.2665 38.197H30.5476V37.1138L31.6308 35.948H29.241V34.622H33.6174V35.6954L32.3642 37.0458C32.8645 37.1478 33.2483 37.3566 33.5202 37.6626C33.7874 37.9735 33.9234 38.3427 33.9234 38.7847C33.9234 39.1442 33.8262 39.4744 33.6319 39.7804C33.4377 40.0865 33.1463 40.3342 32.7479 40.5187C32.3496 40.7034 31.8639 40.8005 31.281 40.8005C30.8536 40.8005 30.431 40.7471 30.0133 40.6451L30.023 40.6402ZM35.2348 48.6061L34.3022 48.3973L33.6028 49.0433L33.5154 48.0913L32.6848 47.625L33.5591 47.2461L33.7437 46.3087L34.3751 47.0276L35.3223 46.9158L34.8366 47.7367L35.2348 48.6013V48.6061ZM34.856 40.6742V34.6171H37.955C38.7273 34.6171 39.315 34.758 39.7182 35.0446C40.1213 35.3311 40.3253 35.7149 40.3253 36.2006C40.3253 36.4872 40.2525 36.7446 40.1116 36.973C39.9707 37.2012 39.7716 37.381 39.5093 37.5121C39.8541 37.6335 40.1262 37.8229 40.3204 38.0804C40.5148 38.3378 40.6168 38.6487 40.6168 39.013C40.6168 39.5424 40.4031 39.9553 39.9756 40.2419C39.5481 40.5285 38.9313 40.6742 38.125 40.6742H34.856Z" fill="white"/>
<path d="M37.9896 38.2129H36.5518V39.4417H37.9896C38.587 39.4417 38.8881 39.2377 38.8881 38.8297C38.8881 38.4217 38.587 38.2177 37.9896 38.2177V38.2129Z" fill="white"/>
<path d="M26.0253 35.9004C25.7291 35.9004 25.5007 36.0412 25.3307 36.3181C25.1607 36.595 25.0781 37.0419 25.0781 37.6441C25.0781 38.2465 25.1607 38.6933 25.3307 38.9702C25.5007 39.2519 25.7339 39.388 26.0253 39.388C26.3167 39.388 26.5451 39.247 26.7151 38.9702C26.885 38.6885 26.9725 38.2465 26.9725 37.6441C26.9725 37.0419 26.885 36.595 26.7151 36.3181C26.5451 36.0412 26.3167 35.9004 26.0253 35.9004Z" fill="white"/>
<path d="M38.5918 36.4393C38.5918 36.0508 38.3053 35.8613 37.7273 35.8613H36.5518V37.0271H37.7273C38.3053 37.0271 38.5918 36.8328 38.5918 36.4393Z" fill="white"/>
<path d="M9.15601 45.7362L10.2004 44.9105L9.01029 43.4047L9.37947 43.1133L10.5695 44.6191L11.7838 43.6573L12.1239 44.0848L9.12206 46.46L7.44629 44.3422L7.82028 44.0459L9.15601 45.7362Z" fill="white"/>
<path d="M6.3877 42.7092L5.65426 41.2763C5.09567 40.1834 5.40168 39.0857 6.412 38.5659C7.42234 38.0462 8.49578 38.4396 9.05439 39.5325L9.7878 40.9654L6.38285 42.7092H6.3877ZM8.65119 39.7754C8.21891 38.9351 7.42715 38.6582 6.66457 39.0516C5.90198 39.4451 5.66397 40.2465 6.09141 41.0868L6.56257 42.0049L9.12237 40.6934L8.65119 39.7754Z" fill="white"/>
<path d="M6.15938 34.4429L6.69854 36.4052L7.73311 36.5558L7.88371 37.0998L3.73559 36.4392L3.59473 35.9195L6.82483 33.2334L6.97541 33.7871L6.16424 34.4477L6.15938 34.4429ZM5.79022 34.744L4.20189 36.0361L6.22738 36.3372L5.79022 34.744Z" fill="white"/>
<path d="M6.56753 27.5945L5.3775 28.396C5.3775 28.4737 5.38721 28.5563 5.38235 28.6388L5.36292 29.586L6.52868 29.6054L6.51896 30.1543L2.69141 30.0814L2.72055 28.5903C2.73998 27.5945 3.25485 27.002 4.08545 27.0213C4.67804 27.0311 5.09577 27.3468 5.27549 27.886L6.57724 27.002L6.56753 27.5994V27.5945ZM4.07574 27.5654C3.52686 27.5557 3.21114 27.9151 3.19656 28.6146L3.17714 29.5423L4.89662 29.5763L4.91605 28.6486C4.93062 27.9491 4.61976 27.5751 4.07088 27.5654H4.07574Z" fill="white"/>
<path d="M6.88311 22.8679L7.34938 22.965L6.77625 25.6803L3.03613 24.8885L3.59472 22.2461L4.06102 22.3433L3.61415 24.4513L4.76533 24.6942L5.16363 22.8193L5.62021 22.9164L5.22192 24.7914L6.43139 25.0488L6.89283 22.8679H6.88311Z" fill="white"/>
<path d="M6.98989 18.5444L7.19389 18.0635L8.56852 18.6464C8.71424 19.1224 8.66076 19.6762 8.44706 20.1716C7.98564 21.2547 6.88788 21.7259 5.84842 21.2839C4.80895 20.8419 4.38637 19.7247 4.84781 18.6318C5.08582 18.0733 5.4744 17.6798 5.96499 17.5098L6.14471 17.9567C5.74156 18.1267 5.4744 18.4084 5.3044 18.8067C4.95953 19.6227 5.27525 20.4533 6.06214 20.7836C6.83445 21.1139 7.66506 20.7691 8.00991 19.9627C8.13617 19.6664 8.18965 19.3604 8.13617 19.0398L6.98989 18.5541V18.5444Z" fill="white"/>
<path d="M6.53809 15.4643L6.82466 14.998L10.0742 17.0138L9.78763 17.4801L6.53809 15.4643Z" fill="white"/>
<path d="M10.4729 15.5809L10.2738 15.1535C10.6527 15.1 11.1093 14.8426 11.4201 14.4637C11.8427 13.9537 11.8281 13.57 11.5707 13.3611C10.8518 12.7637 9.82694 14.9251 8.72917 14.0169C8.27256 13.638 8.18032 12.9628 8.82629 12.1905C9.11292 11.8457 9.50148 11.5639 9.87066 11.4619L10.094 11.8796C9.71518 12.0011 9.39948 12.2293 9.18578 12.4868C8.768 12.9871 8.80203 13.3757 9.05944 13.5894C9.77834 14.1869 10.8081 12.0302 11.8913 12.9288C12.343 13.3029 12.4255 13.9877 11.7796 14.7649C11.4055 15.2166 10.8858 15.5324 10.4729 15.5858V15.5809Z" fill="white"/>
<path d="M12.1142 9.56888L11.1184 10.4189L10.8076 10.0546L13.2168 8L13.5277 8.3643L12.5271 9.21435L14.7031 11.7644L14.2903 12.1142L12.1142 9.56407V9.56888Z" fill="white"/>
<path d="M18.7929 8.47135L19.0358 8.87936L16.6412 10.288L14.7031 6.98499L17.0346 5.61523L17.2775 6.02324L15.422 7.11613L16.0194 8.13131L17.6758 7.15985L17.9089 7.56301L16.2526 8.53444L16.8791 9.59819L18.8026 8.46647L18.7929 8.47135Z" fill="white"/>
<path d="M22.6545 7.46956L21.4838 6.63893C21.411 6.66807 21.3381 6.70207 21.2604 6.73122L20.3716 7.04694L20.7601 8.14467L20.2452 8.3293L18.9629 4.72516L20.3667 4.22485C21.3042 3.8897 22.0376 4.1617 22.3193 4.94373C22.5184 5.50232 22.3727 6.00262 21.9308 6.36692L23.2179 7.27524L22.6545 7.47436V7.46956ZM21.7996 5.12345C21.615 4.60858 21.1681 4.43857 20.5075 4.67172L19.6332 4.98259L20.2113 6.60493L21.0856 6.29406C21.7461 6.06091 21.9842 5.63833 21.7996 5.12345Z" fill="white"/>
<path d="M27.1724 6.10963L27.2452 6.58079L24.5009 6.99366L23.9326 3.21468L26.5993 2.81152L26.6721 3.28268L24.5446 3.60326L24.7195 4.76416L26.6138 4.47757L26.6818 4.93902L24.7875 5.2256L24.972 6.44479L27.1773 6.11449L27.1724 6.10963Z" fill="white"/>
<path d="M28.7412 2.68066L30.349 2.75838C31.5779 2.81667 32.3745 3.6327 32.3211 4.76445C32.2676 5.90105 31.3933 6.63451 30.1692 6.57622L28.5615 6.4985L28.7412 2.68066ZM30.1595 6.10021C31.1018 6.14392 31.7382 5.59504 31.777 4.74016C31.8159 3.88528 31.2379 3.27811 30.2956 3.22954L29.2658 3.18097L29.1298 6.05163L30.1595 6.10021Z" fill="white"/>
<path d="M38.1252 7.11549C37.9115 7.7421 37.2946 8.09182 36.3717 7.77605C35.8617 7.60119 35.41 7.26607 35.1914 6.88234L35.5703 6.5569C35.7354 6.86777 36.0852 7.16407 36.5223 7.31463C37.0713 7.49919 37.4647 7.35347 37.6007 6.96006C37.7416 6.55205 37.5667 6.21203 36.7312 5.92546L35.9103 5.64373L36.7458 3.81738L38.7859 4.51198L38.6304 4.96371L37.0227 4.41483L36.5855 5.37172L36.9886 5.50772C38.067 5.87688 38.339 6.46947 38.1204 7.11063L38.1252 7.11549Z" fill="white"/>
<path d="M39.6215 6.92691C40.2238 5.83888 41.1516 5.53773 41.9336 5.97003C42.7108 6.40232 42.9536 7.34465 42.3513 8.43266C41.749 9.52075 40.8212 9.82187 40.0441 9.3896C39.262 8.95725 39.0192 8.01496 39.6215 6.92206V6.92691ZM41.8704 8.17037C42.3416 7.31551 42.2153 6.68405 41.6955 6.39747C41.1709 6.10603 40.5687 6.33432 40.0975 7.19407C39.6263 8.04898 39.7527 8.68038 40.2773 8.97182C40.797 9.25845 41.3993 9.03011 41.8704 8.17525V8.17037Z" fill="white"/>
<path d="M45.0133 11.4577C44.6102 11.9628 43.9108 12.0746 43.153 11.4626C42.7255 11.1226 42.4195 10.6514 42.3467 10.224L42.813 10.0442C42.8616 10.394 43.0898 10.7923 43.4541 11.0837C43.901 11.4431 44.3236 11.4431 44.5811 11.1177C44.8336 10.802 44.7705 10.4182 44.2605 10.0054L44.0224 9.81597L44.2605 9.51965L45.7468 9.19907L44.309 8.04789L44.6053 7.67871L46.5725 9.25736L46.3394 9.5488L44.7851 9.88883C45.3388 10.4231 45.3679 11.0011 44.9988 11.4626L45.0133 11.4577Z" fill="white"/>
<path d="M48.2327 15.0916C47.7372 15.5191 47.1252 15.3879 46.4937 14.6544L45.3037 13.2701L48.2035 10.7734L49.3256 12.0752C49.8987 12.7406 49.9376 13.3575 49.4713 13.7607C49.1555 14.0327 48.7961 14.057 48.4901 13.9258C48.6795 14.329 48.6212 14.7564 48.2375 15.0867L48.2327 15.0916ZM47.9072 14.6448C48.2424 14.3533 48.1792 13.9793 47.7809 13.5178L46.96 12.5658L45.9934 13.3964L46.8143 14.3484C47.2078 14.8099 47.5672 14.9313 47.9023 14.6448H47.9072ZM48.2229 11.4778L47.2952 12.2743L48.0287 13.1244C48.393 13.547 48.7573 13.6539 49.0633 13.3867C49.3693 13.1244 49.3207 12.7455 48.9564 12.3229L48.2229 11.4729V11.4778Z" fill="white"/>
<path d="M52.4633 17.7239L51.2539 18.2825L52.0553 20.0214L51.6278 20.2205L50.8264 18.4816L49.4227 19.1277L49.1943 18.6322L52.6624 17.0293L53.7942 19.4774L53.3619 19.6765L52.4584 17.7239H52.4633Z" fill="white"/>
<path d="M52.2119 24.1979L51.7019 22.2307L50.6721 22.0655L50.5312 21.5215L54.6697 22.2404L54.8057 22.765L51.5367 25.4074L51.391 24.8536L52.2119 24.2076V24.1979ZM52.5908 23.9065L54.1985 22.6387L52.1779 22.3084L52.5908 23.9065Z" fill="white"/>
<path d="M53.5186 25.919C54.6503 25.851 55.5247 26.6622 55.5975 27.8231C55.6315 28.4108 55.4616 28.9354 55.0924 29.3095L54.7281 28.9743C55.0195 28.6585 55.141 28.2894 55.1166 27.8716C55.0632 27.0119 54.4026 26.4096 53.5575 26.4631C52.7123 26.5165 52.1294 27.1917 52.1829 28.0514C52.2072 28.4691 52.3771 28.8237 52.7075 29.1006L52.3869 29.4746C51.974 29.1492 51.736 28.6488 51.6971 28.0563C51.6243 26.9002 52.3966 25.9871 53.5283 25.919H53.5186Z" fill="white"/>
<path d="M55.5149 31.1253L55.4712 31.6693L51.6582 31.3536L51.7019 30.8096L55.5149 31.1253Z" fill="white"/>
<path d="M55.1942 33.8453L55.0776 34.3796L51.8087 33.6607L51.3618 35.6813L50.8955 35.5793L51.4589 33.0244L55.1942 33.8501V33.8453Z" fill="white"/>
<path d="M54.0769 37.9931L53.8874 38.5079L50.293 37.1917L50.4824 36.6768L54.0769 37.9931Z" fill="white"/>
<path d="M52.2604 41.0054L52.8725 39.8445L53.295 40.068L51.8184 42.8658L51.3958 42.6423L52.0078 41.4815L49.0449 39.9174L49.2975 39.4365L52.2604 41.0006V41.0054Z" fill="white"/>
<path d="M47.767 44.2063L46.7275 43.3855L47.0627 42.9629L48.107 43.7886L51.0068 44.1432L50.6425 44.6046L48.3013 44.3132L49.1222 46.5281L48.7871 46.9507L47.767 44.2063Z" fill="white"/>
</g>
</g>
</g>
</g>
<defs>
<clipPath id="clip0_2376_1292">
<rect width="58.2876" height="54.6446" fill="white"/>
</clipPath>
<clipPath id="clip1_2376_1292">
<rect width="58.2876" height="54.6446" fill="white"/>
</clipPath>
<clipPath id="clip2_2376_1292">
<rect width="58.2876" height="54.6446" fill="white"/>
</clipPath>
</defs>
</svg>
