<svg width="59" height="59" viewBox="0 0 59 59" fill="none" xmlns="http://www.w3.org/2000/svg">
<g clip-path="url(#clip0_2376_1248)">
<g clip-path="url(#clip1_2376_1248)">
<g clip-path="url(#clip2_2376_1248)">
<mask id="mask0_2376_1248" style="mask-type:luminance" maskUnits="userSpaceOnUse" x="0" y="0" width="59" height="59">
<path d="M58.2876 0H0V58.2876H58.2876V0Z" fill="white"/>
</mask>
<g mask="url(#mask0_2376_1248)">
<path d="M29.1438 0C13.0467 0 0 13.0467 0 29.1438C0 45.2409 13.0467 58.2876 29.1438 58.2876C45.2409 58.2876 58.2876 45.2409 58.2876 29.1438C58.2876 13.0467 45.2409 0 29.1438 0ZM29.1438 57.6805C13.411 57.6805 0.607162 44.8766 0.607162 29.1438C0.607162 13.411 13.411 0.607162 29.1438 0.607162C44.8766 0.607162 57.6805 13.411 57.6805 29.1438C57.6805 44.8766 44.8766 57.6805 29.1438 57.6805Z" fill="white"/>
<path d="M42.5942 27.0263H41.3945V29.2656H42.5942C43.0412 29.2656 43.3714 29.1684 43.5997 28.9741C43.828 28.7798 43.9397 28.5078 43.9397 28.1483C43.9397 27.7889 43.828 27.512 43.5997 27.3177C43.3714 27.1235 43.0412 27.0215 42.5942 27.0215V27.0263Z" fill="white"/>
<path d="M29.1438 9.1084C18.0788 9.1084 9.10742 18.0798 9.10742 29.1448C9.10742 40.2097 18.0788 49.1811 29.1438 49.1811C40.2087 49.1811 49.1801 40.2097 49.1801 29.1448C49.1801 18.0798 40.2087 9.1084 29.1438 9.1084ZM14.5816 30.2863C14.7613 30.6165 15.009 30.8739 15.3345 31.0586C15.6599 31.2431 16.0291 31.3305 16.442 31.3305C17.1462 31.3305 17.7486 31.0342 18.244 30.4368L19.6186 31.6852C19.2495 32.1515 18.7832 32.506 18.2197 32.7537C17.6562 33.0014 17.0297 33.1278 16.3302 33.1278C15.5287 33.1278 14.8099 32.9577 14.1736 32.6178C13.5373 32.2777 13.037 31.8065 12.6727 31.2043C12.3084 30.602 12.1238 29.9122 12.1238 29.1496C12.1238 28.387 12.3035 27.7021 12.6727 27.095C13.037 26.4878 13.5373 26.0167 14.1736 25.6815C14.8099 25.3415 15.5287 25.1715 16.3302 25.1715C17.0297 25.1715 17.6611 25.2978 18.2197 25.5455C18.7783 25.7932 19.2446 26.1526 19.6186 26.6189L18.244 27.8624C17.7486 27.265 17.1462 26.9687 16.442 26.9687C16.0242 26.9687 15.6551 27.061 15.3345 27.2407C15.009 27.4253 14.7564 27.6779 14.5816 28.013C14.4019 28.3433 14.3145 28.7271 14.3145 29.1545C14.3145 29.5819 14.4019 29.9657 14.5816 30.2959V30.2863ZM22.4019 30.2765C22.5815 30.6068 22.839 30.8642 23.1693 31.0537C23.4996 31.2382 23.8736 31.3305 24.2962 31.3305C24.7188 31.3305 25.1025 31.248 25.4668 31.0779V28.9796H27.3806V32.1466C26.9434 32.4575 26.4383 32.7003 25.87 32.8655C25.3017 33.0306 24.7334 33.118 24.1651 33.118C23.3636 33.118 22.6398 32.948 22.0036 32.608C21.3624 32.268 20.8573 31.7968 20.493 31.1945C20.1287 30.5923 19.944 29.9025 19.944 29.1399C19.944 28.3773 20.1238 27.6925 20.493 27.0852C20.8573 26.4781 21.3624 26.0069 22.0132 25.6718C22.6593 25.3318 23.3928 25.1617 24.2088 25.1617C24.9228 25.1617 25.564 25.2832 26.1323 25.5212C26.7006 25.7641 27.1766 26.1089 27.5554 26.5607L26.1808 27.809C25.6611 27.2407 25.0442 26.9541 24.3205 26.9541C23.6648 26.9541 23.1353 27.1533 22.737 27.5515C22.3338 27.9499 22.1347 28.4793 22.1347 29.1399C22.1347 29.5625 22.227 29.9413 22.4067 30.2717L22.4019 30.2765ZM35.6866 32.9723L35.6623 28.9165L33.6951 32.2194H32.7334L30.7758 29.0282V32.9723H28.7746V25.322H30.5573L33.2482 29.7373L35.8711 25.322H37.6538L37.6732 32.9723H35.6866ZM44.5268 30.6262C44.0168 30.8546 43.4146 30.9711 42.7248 30.9711H41.3939V32.9723H39.2324V25.322H42.7297C43.4242 25.322 44.0217 25.4386 44.5317 25.667C45.0417 25.8952 45.4352 26.2255 45.712 26.653C45.9889 27.0804 46.1297 27.5807 46.1297 28.1539C46.1297 28.7271 45.9889 29.2273 45.712 29.6499C45.4352 30.0725 45.0417 30.3979 44.5317 30.6262H44.5268Z" fill="white"/>
<path d="M29.8878 52.9257L29.1446 51.4248L28.4014 52.9257L26.7451 53.1685L27.9448 54.3343L27.6631 55.9858L29.1446 55.2086L30.6261 55.9858L30.3444 54.3343L31.5441 53.1685L29.8878 52.9257Z" fill="white"/>
<path d="M21.9792 50.8313C21.751 50.5642 21.4546 50.3699 21.0952 50.2387C20.8135 50.1367 20.5415 50.0881 20.2694 50.0979C20.0023 50.1076 19.7497 50.1756 19.5166 50.3019L19.7303 50.7488C20.1092 50.5642 20.4978 50.5399 20.9009 50.6905C21.1681 50.7876 21.3867 50.9382 21.5567 51.1325C21.7266 51.3268 21.8384 51.5599 21.8821 51.8125C21.9258 52.0651 21.9015 52.3225 21.8044 52.5848C21.7073 52.8422 21.5615 53.056 21.3623 53.2211C21.1632 53.3863 20.9349 53.4883 20.6775 53.532C20.42 53.5757 20.1529 53.5466 19.8906 53.4446C19.4874 53.2988 19.2009 53.0317 19.0357 52.648L18.584 52.8471C18.6811 53.09 18.8268 53.3037 19.026 53.4834C19.2251 53.6631 19.4632 53.804 19.7449 53.906C20.1043 54.0371 20.4589 54.076 20.8086 54.0226C21.1583 53.9691 21.4643 53.8331 21.7315 53.6145C21.9987 53.396 22.1929 53.1094 22.3241 52.7646C22.4504 52.4148 22.4844 52.0699 22.4213 51.7348C22.3581 51.3948 22.2124 51.0936 21.9841 50.8265L21.9792 50.8313Z" fill="white"/>
<path d="M17.6953 48.593C17.2581 48.3356 16.8404 48.2578 16.4469 48.3598C16.0535 48.4618 15.7183 48.7533 15.4414 49.2293L14.334 51.1042L14.7906 51.3714L15.8835 49.5159C16.0924 49.1565 16.3303 48.9378 16.5926 48.8601C16.8549 48.7824 17.1367 48.831 17.4378 49.0059C18.0547 49.3702 18.1567 49.9044 17.739 50.6136L16.6461 52.4691L17.1172 52.746L18.2247 50.8711C18.5015 50.3999 18.5939 49.9676 18.4967 49.5742C18.3995 49.1807 18.1324 48.8505 17.6953 48.593Z" fill="white"/>
<path d="M14.9746 46.786L14.212 47.6651L13.498 47.0434C13.4543 47.0045 13.3911 46.9559 13.3086 46.8928L13.4543 45.4647L13.0025 45.0762L12.8471 46.6402C12.58 46.5334 12.3274 46.5139 12.0796 46.5722C11.8319 46.6354 11.6133 46.7762 11.419 46.9997C11.147 47.3106 11.0401 47.6505 11.0984 48.0148C11.1567 48.3791 11.3753 48.724 11.7494 49.0494L12.8762 50.0257L15.3826 47.1405L14.9698 46.7811L14.9746 46.786ZM12.7791 49.3166L12.0796 48.7095C11.8173 48.4811 11.6667 48.2528 11.6279 48.0246C11.5891 47.7962 11.657 47.5728 11.8416 47.364C12.0213 47.1551 12.2302 47.0531 12.4682 47.0628C12.7013 47.0676 12.9539 47.1891 13.2114 47.4126L13.9108 48.0197L12.784 49.3215L12.7791 49.3166Z" fill="white"/>
<path d="M12.104 44.0265L11.2005 44.7599L10.608 44.0265C10.5691 43.9828 10.5157 43.9197 10.4477 43.8468L10.8411 42.4674L10.4671 42.0059L10.0397 43.5165C9.79675 43.3659 9.54903 43.2979 9.2965 43.3173C9.04389 43.3368 8.80105 43.4339 8.57271 43.6233C8.25213 43.8856 8.08703 44.2014 8.08215 44.5705C8.07726 44.9397 8.22787 45.3186 8.54357 45.7022L9.48105 46.8632L12.4537 44.4588L12.1089 44.0314L12.104 44.0265ZM9.5005 46.1346L8.91763 45.4108C8.69905 45.1437 8.59216 44.8911 8.59216 44.6531C8.59216 44.4151 8.69905 44.216 8.91763 44.0411C9.13132 43.8663 9.35478 43.8031 9.58793 43.8517C9.8162 43.9002 10.0445 44.0557 10.2582 44.3277L10.8411 45.0514L9.5005 46.1346Z" fill="white"/>
<path d="M8.66142 38.8496L8.24852 39.0828L9.33654 41.0257L8.25822 41.6328L7.3208 39.9571L6.91762 40.1854L7.85508 41.8563L6.83018 42.4343L5.77615 40.5545L5.36328 40.7877L6.6796 43.1435L10.0166 41.2734L8.66142 38.8496Z" fill="white"/>
<path d="M8.13157 37.5811L5.43578 38.5137L7.38352 35.4148L7.23783 34.9873L3.61914 36.2405L3.79886 36.7554L6.49466 35.8228L4.55174 38.9266L4.69747 39.3492L8.31131 38.096L8.13157 37.5811Z" fill="white"/>
<path d="M3.57019 33.6232L6.87315 33.0841L6.78572 32.5498L3.48275 33.089L3.26904 31.7969L2.80273 31.8697L3.31275 34.993L3.77905 34.9153L3.57019 33.6232Z" fill="white"/>
<path d="M3.57001 28.9252C3.85659 29.1244 4.18203 29.2361 4.55604 29.2604C4.9252 29.2847 5.26521 29.2216 5.57608 29.0661C5.88695 28.9107 6.13467 28.6824 6.3241 28.3861C6.51354 28.0898 6.62525 27.7498 6.64954 27.3612C6.66897 27.0892 6.64954 26.8221 6.57668 26.5695C6.50382 26.3169 6.40668 26.0837 6.26096 25.8846L4.77462 25.7826L4.73577 26.3072L5.97923 26.3946C6.12495 26.6618 6.1881 26.9629 6.16381 27.3078C6.14438 27.5944 6.06181 27.8469 5.92094 28.0704C5.77522 28.2938 5.59065 28.4589 5.3575 28.5755C5.12435 28.6921 4.87177 28.7407 4.5949 28.7212C4.31318 28.7019 4.07031 28.6192 3.85173 28.4735C3.63315 28.3278 3.47772 28.1335 3.36601 27.8955C3.25429 27.6575 3.21057 27.3904 3.23486 27.0989C3.264 26.6666 3.43887 26.3072 3.75459 26.0254L3.43887 25.666C3.23486 25.8263 3.07457 26.0303 2.95799 26.2732C2.84142 26.5161 2.77341 26.7881 2.74913 27.0941C2.71998 27.4826 2.78313 27.8372 2.92885 28.1627C3.07457 28.4833 3.28829 28.7456 3.57487 28.9398L3.57001 28.9252Z" fill="white"/>
<path d="M4.04605 24.1704C4.28892 24.4181 4.58521 24.593 4.94465 24.6853C5.29923 24.7824 5.64411 24.7824 5.97926 24.6902C6.31441 24.5979 6.60099 24.423 6.84871 24.1704C7.09158 23.9179 7.26644 23.6021 7.36844 23.2281C7.47044 22.8589 7.47532 22.5044 7.3927 22.1595C7.31015 21.8146 7.14986 21.5232 6.907 21.2755C6.66414 21.0277 6.36784 20.8578 6.0084 20.7606C5.64896 20.6634 5.30409 20.6586 4.9738 20.7509C4.6435 20.8432 4.35206 21.0132 4.1092 21.2706C3.86633 21.5232 3.69147 21.8389 3.59432 22.2081C3.49232 22.582 3.4826 22.9415 3.56518 23.2815C3.64776 23.6264 3.80805 23.9227 4.05091 24.1704H4.04605ZM4.05577 22.3343C4.12863 22.0623 4.25492 21.8341 4.43949 21.6543C4.61921 21.4698 4.83779 21.3483 5.08551 21.2803C5.3381 21.2123 5.59553 21.2172 5.86268 21.29C6.12983 21.3629 6.35327 21.4892 6.53784 21.6738C6.72243 21.8583 6.84385 22.072 6.907 22.3246C6.97015 22.5724 6.96529 22.8347 6.89243 23.1066C6.81957 23.3787 6.69328 23.607 6.5087 23.7915C6.32412 23.9761 6.11041 24.1024 5.85782 24.1704C5.60524 24.2384 5.34781 24.2336 5.08065 24.1607C4.81351 24.0878 4.59007 23.9616 4.40549 23.7769C4.22091 23.5924 4.09948 23.3738 4.03634 23.1212C3.97319 22.8687 3.97805 22.6064 4.05091 22.3343H4.05577Z" fill="white"/>
<path d="M6.35356 19.8574C6.68385 20.0226 7.019 20.0954 7.36387 20.076C7.70871 20.0566 8.02929 19.9448 8.32073 19.7457C8.61217 19.5466 8.84532 19.2745 9.02018 18.9297C9.19505 18.5896 9.27279 18.2399 9.2631 17.8902C9.25333 17.5405 9.15621 17.2151 8.96678 16.9236C8.78222 16.6322 8.52474 16.4038 8.18959 16.2339C7.85931 16.0639 7.51928 15.991 7.17929 16.0153C6.83929 16.0396 6.51871 16.1464 6.22727 16.3456C5.93583 16.5448 5.70268 16.8167 5.53267 17.1568C5.35781 17.5016 5.27523 17.8513 5.28495 18.2011C5.29467 18.5508 5.39181 18.8763 5.58124 19.1677C5.76582 19.4591 6.02326 19.6923 6.35356 19.8574ZM5.96497 17.3754C6.09126 17.1228 6.26126 16.9284 6.47984 16.7876C6.69357 16.6468 6.93157 16.569 7.18901 16.5544C7.44642 16.5399 7.69902 16.5982 7.94674 16.7196C8.19447 16.8459 8.38878 17.0159 8.52962 17.2344C8.67046 17.453 8.7482 17.6911 8.75789 17.9437C8.77246 18.2011 8.71417 18.4537 8.58791 18.7062C8.46164 18.9588 8.28678 19.1531 8.07301 19.2988C7.85443 19.4446 7.61647 19.5222 7.35899 19.5368C7.10158 19.5514 6.849 19.4931 6.60128 19.3668C6.35356 19.2406 6.15926 19.0705 6.0184 18.8519C5.87754 18.6333 5.79982 18.3954 5.79011 18.1379C5.78039 17.8756 5.83868 17.6231 5.96497 17.3705V17.3754Z" fill="white"/>
<path d="M11.3853 15.1509C11.6378 14.8351 11.7981 14.5048 11.8661 14.16C11.9341 13.8151 11.9099 13.4848 11.7933 13.1691C11.6718 12.8533 11.4678 12.5814 11.1715 12.3433C10.8801 12.1102 10.5644 11.9693 10.2292 11.9256C9.89406 11.8819 9.5686 11.9305 9.24802 12.0762C8.92744 12.2219 8.64088 12.4551 8.38827 12.7708L7.3877 14.0337L10.3846 16.4138L11.3853 15.1509ZM8.10172 13.8977L8.74288 13.0865C8.9372 12.8436 9.1509 12.6688 9.39374 12.5571C9.63177 12.4502 9.87949 12.4114 10.1272 12.4453C10.3749 12.4794 10.613 12.5862 10.8364 12.7611C11.0598 12.936 11.2152 13.1448 11.3075 13.3779C11.3998 13.6111 11.4192 13.8588 11.3658 14.1163C11.3124 14.3737 11.191 14.6263 10.9966 14.8691L10.3555 15.6803L8.1066 13.8928L8.10172 13.8977Z" fill="white"/>
<path d="M14.824 11.5813L13.2162 9.32743L15.6837 10.4058L15.8877 10.26L15.6691 7.56423L17.2866 9.83264L17.7141 9.52663L15.4943 6.41309L15.13 6.67538L15.402 9.77435L12.5459 8.5114L12.1816 8.76889L14.3966 11.8873L14.824 11.5813Z" fill="white"/>
<path d="M18.7395 7.97174L20.5998 7.15575L21.3721 7.86005L21.8967 7.63178L18.7687 4.8291L18.2732 5.04768L18.2246 9.24926L18.7395 9.02092V7.97663V7.97174ZM18.7395 5.44598L20.2501 6.83031L18.7395 7.49575V5.44598Z" fill="white"/>
<path d="M23.0191 7.35023L22.3827 4.56701L25.2583 6.83536L25.6906 6.73822L24.8406 3.00781L24.3111 3.12925L24.9426 5.91248L22.0719 3.63926L21.6348 3.74127L22.4847 7.47169L23.0191 7.35023Z" fill="white"/>
<path d="M27.1915 6.19342C27.4829 6.47514 27.8861 6.60629 28.3961 6.59172C28.9061 6.57714 29.2995 6.41685 29.5715 6.12056C29.8436 5.82426 29.9747 5.39682 29.9553 4.84794L29.8824 2.67188L29.353 2.6913L29.421 4.84309C29.4356 5.25595 29.353 5.57168 29.1733 5.77569C28.9935 5.98455 28.7312 6.09141 28.3815 6.10598C27.6626 6.13027 27.2935 5.73197 27.2644 4.91109L27.1963 2.75931L26.6523 2.77873L26.7252 4.9548C26.7446 5.49882 26.9001 5.91655 27.1915 6.19828V6.19342Z" fill="white"/>
<path d="M31.8935 5.13522L33.7927 5.40237L33.8559 4.93607L31.9567 4.67377L32.1412 3.35258L34.2736 3.64888L34.3416 3.17772L31.6652 2.80371L31.1406 6.59241L31.6798 6.67012L31.8935 5.13522Z" fill="white"/>
<path d="M34.3702 7.09681L35.0502 6.30507L36.9932 6.89766L37.1146 7.93713L37.6635 8.10231L37.1194 3.93471L36.5997 3.77441L33.8262 6.9268L34.3653 7.09196L34.3702 7.09681ZM36.6968 4.39129L36.9397 6.4265L35.3611 5.94563L36.6968 4.39129Z" fill="white"/>
<path d="M39.6019 9.14231C39.8691 9.27827 40.1363 9.35601 40.4034 9.37547C40.6705 9.39973 40.9279 9.36089 41.1757 9.2637L41.0154 8.7974C40.6171 8.93831 40.2285 8.91397 39.8496 8.71973C39.5971 8.59339 39.3979 8.41853 39.2474 8.19995C39.1016 7.98137 39.019 7.74341 39.0044 7.48593C38.9899 7.22852 39.0434 6.97594 39.1696 6.72822C39.2959 6.4805 39.4659 6.2862 39.6845 6.14534C39.9031 6.00448 40.1411 5.92676 40.4034 5.91705C40.6656 5.90733 40.9231 5.96562 41.1757 6.09191C41.5594 6.2862 41.812 6.5825 41.9334 6.9808L42.4046 6.83508C42.3366 6.5825 42.2152 6.35421 42.0403 6.1502C41.8654 5.95105 41.642 5.78104 41.3749 5.64504C41.0348 5.47017 40.6851 5.39246 40.3354 5.40217C39.9808 5.41189 39.6602 5.51389 39.3687 5.69847C39.0773 5.88305 38.849 6.14534 38.6839 6.47564C38.5188 6.80594 38.441 7.14594 38.4653 7.49081C38.4896 7.83565 38.5964 8.15143 38.7956 8.44286C38.9948 8.7343 39.2619 8.96257 39.6068 9.13743L39.6019 9.14231Z" fill="white"/>
<path d="M42.3457 10.7835L42.778 11.1089L44.7695 8.41309L45.8235 9.19028L46.1053 8.81141L43.5601 6.93164L43.2783 7.3105L44.3324 8.0925L42.3457 10.7835Z" fill="white"/>
<path d="M44.8817 12.3276C44.8671 12.7357 45.042 13.1194 45.3917 13.4886C45.7463 13.8577 46.1252 14.0423 46.5332 14.0471C46.9412 14.0471 47.3395 13.8626 47.7378 13.4788L49.3019 11.9682L48.9327 11.5845L47.3833 13.0806C47.0821 13.3671 46.7955 13.5177 46.5235 13.5225C46.2515 13.5274 45.9892 13.406 45.7463 13.1534C45.2509 12.6385 45.2946 12.0945 45.8872 11.5262L47.4367 10.035L47.0578 9.6416L45.4937 11.1522C45.1003 11.5311 44.8963 11.9245 44.8866 12.3325L44.8817 12.3276Z" fill="white"/>
<path d="M47.5287 15.9523L48.5001 15.3112L49.0198 16.0981C49.0538 16.1466 49.0975 16.2098 49.1607 16.2923L48.6361 17.6281L48.9664 18.1236L49.5347 16.6566C49.763 16.8315 50.001 16.9189 50.2584 16.9238C50.511 16.9287 50.7636 16.8509 51.0065 16.6906C51.3513 16.4624 51.5456 16.1612 51.5845 15.7969C51.6234 15.4278 51.5068 15.0391 51.2347 14.6263L50.409 13.3828L47.2227 15.4957L47.5238 15.9523H47.5287ZM50.3167 14.1017L50.8316 14.874C51.021 15.1606 51.1085 15.4229 51.0842 15.656C51.0599 15.8892 50.9336 16.0835 50.7053 16.234C50.477 16.3846 50.2487 16.4283 50.0205 16.3604C49.797 16.2923 49.5881 16.1126 49.3939 15.8212L48.879 15.0489L50.3119 14.0968L50.3167 14.1017Z" fill="white"/>
<path d="M52.7643 17.2529L49.3291 18.941L49.569 19.4293L53.0042 17.7412L52.7643 17.2529Z" fill="white"/>
<path d="M50.2686 20.9998L52.979 20.106L50.9924 23.1807L51.1332 23.6032L54.7616 22.4035L54.5917 21.8838L51.8861 22.7775L53.8728 19.7077L53.7319 19.2803L50.0986 20.48L50.2686 20.9998Z" fill="white"/>
<path d="M54.2705 24.3507C53.9499 24.2146 53.61 24.1661 53.2408 24.2146C52.8716 24.2632 52.551 24.3895 52.279 24.6033C52.007 24.817 51.8078 25.0841 51.6767 25.4144C51.5455 25.7447 51.5067 26.0993 51.5553 26.483C51.5893 26.755 51.6621 27.0076 51.7787 27.2456C51.8953 27.4836 52.041 27.6876 52.2207 27.8576L53.7022 27.6682L53.6342 27.1485L52.4005 27.3039C52.2062 27.0707 52.0847 26.7842 52.0459 26.4441C52.0119 26.1576 52.041 25.8904 52.1382 25.6476C52.2353 25.4047 52.3859 25.2007 52.5947 25.0404C52.8036 24.8801 53.0416 24.7878 53.3136 24.749C53.5905 24.715 53.8528 24.749 54.0908 24.851C54.3288 24.953 54.528 25.1084 54.6785 25.327C54.834 25.5407 54.9262 25.7933 54.9651 26.0798C55.0185 26.5122 54.9214 26.8959 54.6639 27.2359L55.0428 27.5273C55.2129 27.3282 55.3294 27.0999 55.3974 26.8425C55.4654 26.585 55.48 26.2984 55.4411 25.9973C55.3925 25.6087 55.2663 25.2736 55.0623 24.9869C54.8583 24.7004 54.596 24.4867 54.2754 24.3507H54.2705Z" fill="white"/>
<path d="M51.7546 30.5146L51.6865 31.0587L52.8377 31.1995L52.726 32.137C52.6677 32.6276 52.7357 33.0307 52.9397 33.3416C53.1389 33.6525 53.4449 33.8322 53.8577 33.8808C54.2706 33.9294 54.6107 33.8274 54.8826 33.5747C55.1498 33.3221 55.3149 32.9482 55.3781 32.4576L55.5578 30.9761L51.7594 30.5146H51.7546ZM54.9021 32.3799C54.8584 32.7247 54.7564 32.9773 54.5863 33.1376C54.4163 33.2979 54.1978 33.3659 53.9209 33.3319C53.644 33.2979 53.4449 33.1813 53.3235 32.9822C53.202 32.783 53.1583 32.511 53.1972 32.171L53.3089 31.2481L55.0138 31.4569L54.9021 32.3799Z" fill="white"/>
<path d="M51.0361 34.8908L52.1483 35.2308L51.8715 36.1343C51.8569 36.1877 51.8326 36.2654 51.8132 36.3674L50.4483 36.8143L50.2734 37.3826L51.7647 36.8871C51.7792 37.1737 51.8618 37.4166 52.0172 37.6157C52.1727 37.8149 52.3912 37.9558 52.6729 38.0432C53.0712 38.1646 53.421 38.1209 53.7319 37.9169C54.0427 37.7129 54.2661 37.3729 54.4119 36.9017L54.8441 35.4737L51.1818 34.3613L51.0215 34.8859L51.0361 34.8908ZM52.3232 36.2509L52.5953 35.362L54.2419 35.8622L53.9698 36.7511C53.8678 37.0815 53.7221 37.3146 53.5279 37.4458C53.3335 37.5769 53.1053 37.6012 52.8381 37.5234C52.5709 37.4409 52.3961 37.2952 52.3038 37.0766C52.2115 36.858 52.2212 36.586 52.3184 36.2509H52.3232Z" fill="white"/>
<path d="M49.8705 38.3099L50.5213 39.1259L49.5791 40.928L48.5348 40.86L48.2676 41.37L52.4643 41.5983L52.7169 41.1175L50.1279 37.8145L49.8656 38.3148L49.8705 38.3099ZM52.1 41.098L50.055 40.962L50.8177 39.5L52.1 41.098Z" fill="white"/>
<path d="M49.6763 42.6622C49.38 42.4388 49.0643 42.3027 48.7194 42.2639C48.3794 42.2202 48.0443 42.2736 47.7237 42.4145C47.4031 42.5553 47.1263 42.7788 46.8931 43.0848C46.7134 43.3228 46.5871 43.5705 46.5142 43.8328C46.4414 44.0903 46.4316 44.3526 46.4851 44.61L46.9757 44.5371C46.9077 44.1194 47.0048 43.7405 47.2671 43.4054C47.442 43.177 47.646 43.0119 47.8888 42.9099C48.1317 42.8079 48.3795 42.769 48.6369 42.8031C48.8943 42.8371 49.1323 42.9391 49.3509 43.1042C49.5695 43.2742 49.7298 43.4782 49.8318 43.7162C49.9338 43.9542 49.9629 44.202 49.9241 44.4643C49.8852 44.7217 49.7784 44.9694 49.6083 45.1928C49.346 45.5329 49.0108 45.7271 48.5931 45.7708L48.6514 46.2615C48.9137 46.242 49.1614 46.1643 49.3897 46.0283C49.6181 45.8923 49.8269 45.7077 50.0066 45.4697C50.2398 45.1686 50.3806 44.8382 50.4341 44.4885C50.4875 44.1388 50.4487 43.8036 50.3175 43.4879C50.1864 43.1674 49.9775 42.8954 49.6812 42.6719L49.6763 42.6622Z" fill="white"/>
<path d="M47.067 47.9228L44.7792 45.4795L44.3857 45.8487L46.6735 48.2919L45.7118 49.1905L46.0372 49.5354L48.3493 47.3738L48.0239 47.029L47.067 47.9228Z" fill="white"/>
<path d="M42.8426 47.124L42.4062 47.4489L44.6921 50.519L45.1284 50.194L42.8426 47.124Z" fill="white"/>
<path d="M41.9131 48.952C41.6168 48.7772 41.2914 48.6945 40.9368 48.6994C40.5822 48.7043 40.2422 48.7965 39.9119 48.986C39.6496 49.1317 39.4359 49.3114 39.2707 49.5203C39.1056 49.7291 38.9938 49.9672 38.9355 50.2246L39.4164 50.3509C39.5184 49.9429 39.7565 49.632 40.1304 49.4231C40.3782 49.2823 40.6357 49.2143 40.8979 49.2143C41.1602 49.2143 41.4031 49.2774 41.6265 49.4086C41.8499 49.5397 42.0297 49.7292 42.1657 49.9672C42.3017 50.21 42.3697 50.4577 42.3648 50.7152C42.3599 50.9726 42.292 51.2155 42.1559 51.4389C42.02 51.6624 41.8257 51.8421 41.5779 51.983C41.204 52.1918 40.8153 52.2355 40.4171 52.1141L40.2762 52.5901C40.5239 52.6776 40.7814 52.7018 41.0485 52.6679C41.3156 52.6338 41.5779 52.5415 41.8354 52.3958C42.1705 52.2064 42.428 51.9635 42.6174 51.6672C42.8069 51.3661 42.8991 51.0455 42.9089 50.7007C42.9137 50.3557 42.8262 50.0206 42.6466 49.7C42.4668 49.3746 42.224 49.1269 41.9277 48.952H41.9131Z" fill="white"/>
<path d="M35.3232 50.9531L35.4835 51.4L37.5867 50.6471L37.9996 51.8129L36.1927 52.4589L36.353 52.8961L38.155 52.25L38.5533 53.3575L36.5229 54.0812L36.6832 54.5281L39.2285 53.6198L37.9413 50.0156L35.3232 50.9531Z" fill="white"/>
</g>
</g>
</g>
</g>
<defs>
<clipPath id="clip0_2376_1248">
<rect width="58.2876" height="58.2876" fill="white"/>
</clipPath>
<clipPath id="clip1_2376_1248">
<rect width="58.2876" height="58.2876" fill="white"/>
</clipPath>
<clipPath id="clip2_2376_1248">
<rect width="58.2876" height="58.2876" fill="white"/>
</clipPath>
</defs>
</svg>
