<svg width="213" height="54" viewBox="0 0 213 54" fill="none" xmlns="http://www.w3.org/2000/svg">
<circle cx="12.479" cy="14.5346" r="12.479" fill="#1EA465"/>
<path d="M49.9169 2.05655C49.9169 8.94848 44.3299 14.5355 37.4379 14.5355C30.546 14.5355 24.959 8.94848 24.959 2.05655C24.959 1.99078 49.9169 2.05655 49.9169 2.05655Z" fill="#075731"/>
<circle cx="12.479" cy="39.4936" r="12.479" fill="#1EA465"/>
<circle cx="37.4379" cy="27.0141" r="12.479" fill="#075731"/>
<path d="M49.9169 51.9054C49.9169 45.0134 44.3299 39.4264 37.4379 39.4264C30.546 39.4264 24.959 45.0134 24.959 51.9054C24.959 51.9711 49.9169 51.9054 49.9169 51.9054Z" fill="#075731"/>
<path d="M70.5396 21L66.415 4.81218H69.6748L73.0232 18.8934L72.1584 18.3833H74.3759L73.4002 18.8934L76.039 5.43308H78.7444L75.4625 21H70.5396ZM80.2079 21L76.6377 5.43308H79.454L82.492 18.8934L81.5384 18.3833H83.7116L82.8689 18.8934L85.8182 4.81218H88.9006L85.2195 21H80.2079ZM91.4623 21V4.81218H94.6112V21H91.4623ZM98.6509 21V4.81218H103.818L110.625 18.3833H111.357L110.914 18.7825V4.81218H113.885V21H108.696L101.888 7.42884H101.134L101.578 7.02969V21H98.6509ZM123.402 21.4213C121.968 21.4213 120.756 21.1922 119.766 20.7339C118.79 20.2756 118.043 19.6473 117.526 18.849C117.009 18.0359 116.75 17.1194 116.75 16.0993H119.832C119.832 16.528 119.95 16.9493 120.187 17.3633C120.424 17.7624 120.801 18.0877 121.318 18.339C121.85 18.5903 122.545 18.716 123.402 18.716C124.171 18.716 124.814 18.6051 125.332 18.3833C125.849 18.1616 126.233 17.8733 126.485 17.5185C126.736 17.1489 126.862 16.735 126.862 16.2767C126.862 15.7002 126.618 15.2419 126.13 14.9018C125.642 14.547 124.888 14.3253 123.868 14.2366L122.449 14.1257C120.897 13.9927 119.655 13.5122 118.723 12.6843C117.807 11.8417 117.349 10.7329 117.349 9.35807C117.349 8.32323 117.593 7.43623 118.08 6.69706C118.568 5.94311 119.248 5.36655 120.121 4.9674C121.008 4.55347 122.042 4.3465 123.225 4.3465C124.452 4.3465 125.509 4.56086 126.396 4.98958C127.283 5.4183 127.97 6.02442 128.458 6.80794C128.946 7.57667 129.19 8.48585 129.19 9.53547H126.108C126.108 9.09197 125.997 8.68543 125.775 8.31584C125.568 7.93147 125.25 7.62841 124.822 7.40666C124.408 7.17013 123.875 7.05186 123.225 7.05186C122.604 7.05186 122.087 7.15535 121.673 7.36231C121.259 7.56928 120.948 7.85017 120.741 8.20497C120.534 8.55977 120.431 8.94414 120.431 9.35807C120.431 9.86071 120.616 10.3042 120.985 10.6886C121.355 11.0582 121.939 11.2725 122.737 11.3317L124.156 11.4647C125.309 11.5534 126.322 11.7973 127.194 12.1965C128.067 12.5956 128.739 13.1352 129.212 13.8153C129.7 14.4953 129.944 15.3158 129.944 16.2767C129.944 17.2968 129.678 18.1985 129.146 18.9821C128.614 19.7508 127.852 20.3495 126.862 20.7782C125.886 21.207 124.733 21.4213 123.402 21.4213ZM135.583 21V7.14056H138.732V21H135.583ZM130.904 7.58407V4.81218H143.411V7.58407H130.904ZM153.054 21.4213C151.591 21.4213 150.319 21.1626 149.24 20.6452C148.176 20.1278 147.289 19.4551 146.579 18.6273C145.884 17.7846 145.359 16.8828 145.005 15.9219C144.665 14.9462 144.495 14.0075 144.495 13.1057V12.6178C144.495 11.6273 144.672 10.6442 145.027 9.66852C145.382 8.67804 145.914 7.78364 146.623 6.98534C147.348 6.18703 148.242 5.55135 149.307 5.07828C150.371 4.59043 151.62 4.3465 153.054 4.3465C154.473 4.3465 155.715 4.59043 156.78 5.07828C157.844 5.55135 158.731 6.18703 159.441 6.98534C160.165 7.78364 160.705 8.67804 161.059 9.66852C161.414 10.6442 161.592 11.6273 161.592 12.6178V13.1057C161.592 14.0075 161.414 14.9462 161.059 15.9219C160.719 16.8828 160.195 17.7846 159.485 18.6273C158.79 19.4551 157.903 20.1278 156.824 20.6452C155.76 21.1626 154.503 21.4213 153.054 21.4213ZM153.054 18.4942C153.882 18.4942 154.621 18.3464 155.272 18.0507C155.937 17.755 156.499 17.3485 156.957 16.8311C157.43 16.2989 157.785 15.7002 158.021 15.0349C158.273 14.3549 158.398 13.6379 158.398 12.8839C158.398 12.0708 158.273 11.3243 158.021 10.6442C157.785 9.96419 157.43 9.37286 156.957 8.87022C156.499 8.36758 155.937 7.97582 155.272 7.69494C154.606 7.41406 153.867 7.27361 153.054 7.27361C152.226 7.27361 151.48 7.41406 150.814 7.69494C150.149 7.97582 149.58 8.36758 149.107 8.87022C148.649 9.37286 148.294 9.96419 148.043 10.6442C147.806 11.3243 147.688 12.0708 147.688 12.8839C147.688 13.6379 147.806 14.3549 148.043 15.0349C148.294 15.7002 148.649 16.2989 149.107 16.8311C149.58 17.3485 150.149 17.755 150.814 18.0507C151.48 18.3464 152.226 18.4942 153.054 18.4942ZM164.635 21V4.81218H169.802L176.609 18.3833H177.341L176.898 18.7825V4.81218H179.869V21H174.68L167.872 7.42884H167.118L167.562 7.02969V21H164.635ZM184.353 7.42884L181.869 2.88294H185.151L187.08 7.42884H184.353ZM196.035 21.4213C194.601 21.4213 193.388 21.1922 192.398 20.7339C191.422 20.2756 190.676 19.6473 190.158 18.849C189.641 18.0359 189.382 17.1194 189.382 16.0993H192.464C192.464 16.528 192.583 16.9493 192.819 17.3633C193.056 17.7624 193.433 18.0877 193.95 18.339C194.482 18.5903 195.177 18.716 196.035 18.716C196.803 18.716 197.446 18.6051 197.964 18.3833C198.481 18.1616 198.866 17.8733 199.117 17.5185C199.368 17.1489 199.494 16.735 199.494 16.2767C199.494 15.7002 199.25 15.2419 198.762 14.9018C198.274 14.547 197.52 14.3253 196.5 14.2366L195.081 14.1257C193.529 13.9927 192.287 13.5122 191.356 12.6843C190.439 11.8417 189.981 10.7329 189.981 9.35807C189.981 8.32323 190.225 7.43623 190.713 6.69706C191.2 5.94311 191.88 5.36655 192.753 4.9674C193.64 4.55347 194.674 4.3465 195.857 4.3465C197.084 4.3465 198.141 4.56086 199.028 4.98958C199.915 5.4183 200.603 6.02442 201.09 6.80794C201.578 7.57667 201.822 8.48585 201.822 9.53547H198.74C198.74 9.09197 198.629 8.68543 198.407 8.31584C198.2 7.93147 197.882 7.62841 197.454 7.40666C197.04 7.17013 196.508 7.05186 195.857 7.05186C195.236 7.05186 194.719 7.15535 194.305 7.36231C193.891 7.56928 193.58 7.85017 193.374 8.20497C193.167 8.55977 193.063 8.94414 193.063 9.35807C193.063 9.86071 193.248 10.3042 193.617 10.6886C193.987 11.0582 194.571 11.2725 195.369 11.3317L196.788 11.4647C197.942 11.5534 198.954 11.7973 199.826 12.1965C200.699 12.5956 201.371 13.1352 201.844 13.8153C202.332 14.4953 202.576 15.3158 202.576 16.2767C202.576 17.2968 202.31 18.1985 201.778 18.9821C201.246 19.7508 200.484 20.3495 199.494 20.7782C198.518 21.207 197.365 21.4213 196.035 21.4213ZM70.5839 43.0328V40.3052H73.7328C74.3685 40.3052 74.9007 40.1796 75.3294 39.9283C75.7729 39.6769 76.1055 39.3295 76.3273 38.886C76.5638 38.4425 76.6821 37.9325 76.6821 37.356C76.6821 36.7794 76.5638 36.2694 76.3273 35.8259C76.1055 35.3824 75.7729 35.0423 75.3294 34.8058C74.9007 34.5545 74.3685 34.4288 73.7328 34.4288H70.5839V31.7013H73.4667C74.8268 31.7013 75.9799 31.9231 76.926 32.3666C77.8869 32.8101 78.6187 33.4457 79.1213 34.2736C79.624 35.0867 79.8753 36.055 79.8753 37.1786V37.5334C79.8753 38.6569 79.624 39.6326 79.1213 40.4605C78.6187 41.2736 77.8869 41.9092 76.926 42.3675C75.9799 42.811 74.8268 43.0328 73.4667 43.0328H70.5839ZM67.8786 48V31.7013H71.0274V48H67.8786ZM93.0962 48V31.8122H96.245V48H93.0962ZM82.4743 48V31.8122H85.6232V48H82.4743ZM85.0466 41.2809V38.5091H93.6727V41.2809H85.0466ZM98.6351 48L104.157 31.8122H109.301L114.978 48H111.741L106.929 33.9632L108.06 34.451H105.288L106.441 33.9632L101.784 48H98.6351ZM102.494 43.698L103.491 41.037H110.055L111.031 43.698H102.494ZM117.383 48V31.7013H120.532V48H117.383ZM127.273 48L122.306 40.9483H125.831L130.954 48H127.273ZM119.6 42.5893V40.0391H123.725C124.301 40.0391 124.797 39.9209 125.211 39.6843C125.639 39.4478 125.972 39.1152 126.208 38.6865C126.445 38.2577 126.563 37.7699 126.563 37.2229C126.563 36.6611 126.445 36.1659 126.208 35.7372C125.972 35.3085 125.639 34.9758 125.211 34.7393C124.797 34.5028 124.301 34.3845 123.725 34.3845H119.6V31.7013H123.392C124.693 31.7013 125.817 31.8935 126.763 32.2779C127.724 32.6622 128.463 33.2462 128.98 34.0297C129.498 34.8132 129.756 35.7963 129.756 36.979V37.3338C129.756 38.5312 129.49 39.5143 128.958 40.2831C128.441 41.0518 127.709 41.6284 126.763 42.0127C125.817 42.3971 124.693 42.5893 123.392 42.5893H119.6ZM133.343 48V31.8122H137.645L141.703 41.4805H142.102L146.138 31.8122H150.506V48H147.38V34.1849L147.779 34.2293L143.41 44.6959H140.195L135.804 34.2293L136.226 34.1849V48H133.343ZM152.903 48L158.425 31.8122H163.57L169.246 48H166.009L161.197 33.9632L162.328 34.451H159.556L160.709 33.9632L156.052 48H152.903ZM156.762 43.698L157.76 41.037H164.324L165.299 43.698H156.762ZM178.319 48.4213C176.855 48.4213 175.599 48.1626 174.549 47.6452C173.499 47.1278 172.642 46.4551 171.977 45.6273C171.326 44.7994 170.846 43.8976 170.535 42.9219C170.225 41.9462 170.07 41.0075 170.07 40.1057V39.6178C170.07 38.6125 170.225 37.6221 170.535 36.6463C170.86 35.6706 171.356 34.7836 172.021 33.9853C172.686 33.187 173.529 32.5513 174.549 32.0783C175.584 31.5904 176.803 31.3465 178.208 31.3465C179.671 31.3465 180.943 31.6126 182.022 32.1448C183.116 32.6622 183.988 33.4014 184.639 34.3623C185.289 35.3085 185.681 36.4172 185.814 37.6886H182.643C182.525 36.9494 182.258 36.3285 181.845 35.8259C181.445 35.3085 180.935 34.9241 180.314 34.6728C179.694 34.4067 178.991 34.2736 178.208 34.2736C177.41 34.2736 176.7 34.4141 176.079 34.6949C175.458 34.961 174.941 35.3454 174.527 35.848C174.113 36.3507 173.795 36.942 173.573 37.6221C173.366 38.3021 173.263 39.056 173.263 39.8839C173.263 40.6822 173.366 41.4214 173.573 42.1014C173.795 42.7815 174.12 43.3802 174.549 43.8976C174.978 44.4002 175.502 44.792 176.123 45.0729C176.759 45.3538 177.491 45.4942 178.319 45.4942C179.531 45.4942 180.551 45.1985 181.379 44.6072C182.222 44.0011 182.732 43.1584 182.909 42.0792H186.08C185.932 43.2324 185.54 44.2894 184.905 45.2503C184.269 46.2112 183.397 46.9799 182.288 47.5565C181.179 48.1331 179.856 48.4213 178.319 48.4213ZM191.712 41.8131L186.833 31.8122H190.071L193.796 39.64L193.087 39.4182H195.193L194.439 39.64L197.832 31.8122H200.892L196.391 41.8131H191.712ZM192.51 48V41.3253H195.592V48H192.51Z" fill="black"/>
<path d="M207.358 49.0146C206.583 49.0146 205.896 48.8817 205.298 48.6159C204.711 48.339 204.218 47.9791 203.82 47.5361C203.421 47.082 203.122 46.5836 202.923 46.0409C202.723 45.4982 202.624 44.9555 202.624 44.4128V44.147C202.624 43.5822 202.723 43.034 202.923 42.5024C203.133 41.9597 203.438 41.4668 203.836 41.0238C204.246 40.5808 204.745 40.232 205.332 39.9772C205.919 39.7114 206.594 39.5785 207.358 39.5785C208.122 39.5785 208.798 39.7114 209.385 39.9772C209.972 40.232 210.465 40.5808 210.864 41.0238C211.273 41.4668 211.578 41.9597 211.777 42.5024C211.988 43.034 212.093 43.5822 212.093 44.147V44.4128C212.093 44.9555 211.993 45.4982 211.794 46.0409C211.595 46.5836 211.296 47.082 210.897 47.5361C210.498 47.9791 210 48.339 209.402 48.6159C208.815 48.8817 208.134 49.0146 207.358 49.0146ZM207.358 48.1507C208.122 48.1507 208.787 47.9791 209.352 47.6357C209.928 47.2813 210.371 46.8162 210.681 46.2403C211.002 45.6533 211.163 45.0054 211.163 44.2966C211.163 43.5656 211.002 42.9122 210.681 42.3362C210.371 41.7493 209.928 41.2896 209.352 40.9574C208.787 40.6141 208.122 40.4424 207.358 40.4424C206.594 40.4424 205.924 40.6141 205.348 40.9574C204.783 41.2896 204.34 41.7493 204.019 42.3362C203.709 42.9122 203.554 43.5656 203.554 44.2966C203.554 45.0054 203.709 45.6533 204.019 46.2403C204.34 46.8162 204.783 47.2813 205.348 47.6357C205.924 47.9791 206.594 48.1507 207.358 48.1507ZM205.415 46.7885V41.6053H206.644V46.7885H205.415ZM208.471 46.7885L207.126 44.7949H208.422L209.85 46.7885H208.471ZM205.996 45.2269V44.1803H207.425C207.735 44.1803 207.956 44.1138 208.089 43.9809C208.233 43.848 208.305 43.6597 208.305 43.4161C208.305 43.1614 208.233 42.9731 208.089 42.8512C207.956 42.7183 207.735 42.6519 207.425 42.6519H205.996V41.6053H207.342C208.039 41.6053 208.582 41.7603 208.97 42.0704C209.357 42.3805 209.551 42.8291 209.551 43.4161C209.551 43.992 209.357 44.4405 208.97 44.7617C208.582 45.0718 208.039 45.2269 207.342 45.2269H205.996Z" fill="black"/>
</svg>
