<svg width="219" height="54" viewBox="0 0 219 54" fill="none" xmlns="http://www.w3.org/2000/svg">
<circle cx="12.8305" cy="14.184" r="12.8305" fill="#1EA465"/>
<path d="M51.3231 1.35424C51.3231 8.44032 45.5787 14.1847 38.4926 14.1847C31.4065 14.1847 25.6621 8.44032 25.6621 1.35424C25.6621 1.28663 51.3231 1.35424 51.3231 1.35424Z" fill="white"/>
<circle cx="12.8305" cy="39.8461" r="12.8305" fill="#1EA465"/>
<circle cx="38.4926" cy="27.016" r="12.8305" fill="white"/>
<path d="M51.3231 52.6067C51.3231 45.5206 45.5787 39.7762 38.4926 39.7762C31.4065 39.7762 25.6621 45.5206 25.6621 52.6067C25.6621 52.6743 51.3231 52.6067 51.3231 52.6067Z" fill="white"/>
<path d="M72.5262 21L68.2855 4.35618H71.637L75.0798 18.834L74.1906 18.3096H76.4706L75.4674 18.834L78.1806 4.99458H80.9621L77.5878 21H72.5262ZM82.4669 21L78.7962 4.99458H81.6917L84.8153 18.834L83.8349 18.3096H86.0693L85.2029 18.834L88.2353 4.35618H91.4044L87.6197 21H82.4669ZM94.0383 21V4.35618H97.2759V21H94.0383ZM101.429 21V4.35618H106.742L113.741 18.3096H114.494L114.038 18.72V4.35618H117.093V21H111.758L104.758 7.04655H103.983L104.439 6.63616V21H101.429ZM126.878 21.4332C125.404 21.4332 124.157 21.1976 123.139 20.7264C122.136 20.2552 121.368 19.6092 120.836 18.7884C120.304 17.9524 120.038 17.01 120.038 15.9613H123.207C123.207 16.4021 123.329 16.8352 123.572 17.2608C123.815 17.6712 124.203 18.0056 124.735 18.264C125.282 18.5224 125.997 18.6516 126.878 18.6516C127.669 18.6516 128.33 18.5376 128.862 18.3096C129.394 18.0816 129.789 17.7852 130.047 17.4204C130.306 17.0404 130.435 16.6148 130.435 16.1437C130.435 15.5509 130.184 15.0797 129.683 14.7301C129.181 14.3653 128.406 14.1373 127.357 14.0461L125.898 13.9321C124.302 13.7953 123.025 13.3013 122.067 12.4501C121.125 11.5837 120.654 10.4437 120.654 9.03013C120.654 7.96614 120.905 7.05415 121.406 6.29416C121.908 5.51897 122.607 4.92618 123.504 4.51578C124.416 4.09018 125.48 3.87739 126.696 3.87739C127.957 3.87739 129.044 4.09778 129.956 4.53858C130.868 4.97938 131.575 5.60257 132.077 6.40816C132.578 7.19855 132.829 8.13334 132.829 9.21253H129.66C129.66 8.75653 129.546 8.33854 129.318 7.95854C129.105 7.56335 128.778 7.25175 128.337 7.02375C127.912 6.78056 127.365 6.65896 126.696 6.65896C126.057 6.65896 125.525 6.76536 125.1 6.97815C124.674 7.19095 124.355 7.47975 124.142 7.84454C123.929 8.20934 123.823 8.60454 123.823 9.03013C123.823 9.54693 124.013 10.0029 124.393 10.3981C124.773 10.7781 125.373 10.9985 126.194 11.0593L127.653 11.1961C128.839 11.2873 129.88 11.5381 130.777 11.9485C131.674 12.3589 132.365 12.9137 132.852 13.6129C133.353 14.3121 133.604 15.1557 133.604 16.1437C133.604 17.1924 133.33 18.1196 132.783 18.9252C132.236 19.7156 131.453 20.3312 130.435 20.772C129.432 21.2128 128.246 21.4332 126.878 21.4332ZM139.402 21V6.75016H142.64V21H139.402ZM134.591 7.20615V4.35618H147.45V7.20615H134.591ZM157.365 21.4332C155.86 21.4332 154.553 21.1672 153.444 20.6352C152.349 20.1032 151.437 19.4116 150.708 18.5604C149.993 17.694 149.454 16.7668 149.089 15.7789C148.739 14.7757 148.564 13.8105 148.564 12.8833V12.3817C148.564 11.3633 148.747 10.3525 149.112 9.34933C149.476 8.33094 150.024 7.41135 150.753 6.59056C151.498 5.76977 152.418 5.11617 153.512 4.62978C154.606 4.12818 155.891 3.87739 157.365 3.87739C158.824 3.87739 160.101 4.12818 161.196 4.62978C162.29 5.11617 163.202 5.76977 163.931 6.59056C164.676 7.41135 165.231 8.33094 165.596 9.34933C165.961 10.3525 166.143 11.3633 166.143 12.3817V12.8833C166.143 13.8105 165.961 14.7757 165.596 15.7789C165.246 16.7668 164.707 17.694 163.977 18.5604C163.263 19.4116 162.351 20.1032 161.241 20.6352C160.147 21.1672 158.855 21.4332 157.365 21.4332ZM157.365 18.4236C158.216 18.4236 158.976 18.2716 159.645 17.9676C160.329 17.6636 160.907 17.2456 161.378 16.7136C161.864 16.1665 162.229 15.5509 162.472 14.8669C162.731 14.1677 162.86 13.4305 162.86 12.6553C162.86 11.8193 162.731 11.0517 162.472 10.3525C162.229 9.65332 161.864 9.04533 161.378 8.52854C160.907 8.01174 160.329 7.60895 159.645 7.32015C158.961 7.03135 158.201 6.88695 157.365 6.88695C156.514 6.88695 155.746 7.03135 155.062 7.32015C154.378 7.60895 153.793 8.01174 153.307 8.52854C152.836 9.04533 152.471 9.65332 152.212 10.3525C151.969 11.0517 151.848 11.8193 151.848 12.6553C151.848 13.4305 151.969 14.1677 152.212 14.8669C152.471 15.5509 152.836 16.1665 153.307 16.7136C153.793 17.2456 154.378 17.6636 155.062 17.9676C155.746 18.2716 156.514 18.4236 157.365 18.4236ZM169.272 21V4.35618H174.584L181.584 18.3096H182.336L181.88 18.72V4.35618H184.935V21H179.6L172.601 7.04655H171.826L172.282 6.63616V21H169.272ZM189.545 7.04655L186.992 2.3726H190.366L192.35 7.04655H189.545ZM201.556 21.4332C200.082 21.4332 198.835 21.1976 197.817 20.7264C196.814 20.2552 196.046 19.6092 195.514 18.7884C194.982 17.9524 194.716 17.01 194.716 15.9613H197.885C197.885 16.4021 198.007 16.8352 198.25 17.2608C198.493 17.6712 198.881 18.0056 199.413 18.264C199.96 18.5224 200.675 18.6516 201.556 18.6516C202.347 18.6516 203.008 18.5376 203.54 18.3096C204.072 18.0816 204.467 17.7852 204.725 17.4204C204.984 17.0404 205.113 16.6148 205.113 16.1437C205.113 15.5509 204.862 15.0797 204.361 14.7301C203.859 14.3653 203.084 14.1373 202.035 14.0461L200.576 13.9321C198.98 13.7953 197.703 13.3013 196.746 12.4501C195.803 11.5837 195.332 10.4437 195.332 9.03013C195.332 7.96614 195.583 7.05415 196.084 6.29416C196.586 5.51897 197.285 4.92618 198.182 4.51578C199.094 4.09018 200.158 3.87739 201.374 3.87739C202.635 3.87739 203.722 4.09778 204.634 4.53858C205.546 4.97938 206.253 5.60257 206.755 6.40816C207.256 7.19855 207.507 8.13334 207.507 9.21253H204.338C204.338 8.75653 204.224 8.33854 203.996 7.95854C203.783 7.56335 203.456 7.25175 203.015 7.02375C202.59 6.78056 202.043 6.65896 201.374 6.65896C200.735 6.65896 200.203 6.76536 199.778 6.97815C199.352 7.19095 199.033 7.47975 198.82 7.84454C198.607 8.20934 198.501 8.60454 198.501 9.03013C198.501 9.54693 198.691 10.0029 199.071 10.3981C199.451 10.7781 200.051 10.9985 200.872 11.0593L202.331 11.1961C203.517 11.2873 204.558 11.5381 205.455 11.9485C206.352 12.3589 207.043 12.9137 207.53 13.6129C208.031 14.3121 208.282 15.1557 208.282 16.1437C208.282 17.1924 208.009 18.1196 207.461 18.9252C206.914 19.7156 206.131 20.3312 205.113 20.772C204.11 21.2128 202.924 21.4332 201.556 21.4332ZM72.5718 42.8929V40.0885H75.8094C76.463 40.0885 77.0102 39.9593 77.451 39.7009C77.907 39.4425 78.249 39.0853 78.477 38.6293C78.7202 38.1733 78.8418 37.6489 78.8418 37.0561C78.8418 36.4633 78.7202 35.9389 78.477 35.4829C78.249 35.0269 77.907 34.6773 77.451 34.4341C77.0102 34.1758 76.463 34.0466 75.8094 34.0466H72.5718V31.2422H75.5358C76.9342 31.2422 78.1198 31.4702 79.0926 31.9262C80.0805 32.3822 80.8329 33.0358 81.3497 33.887C81.8665 34.7229 82.1249 35.7185 82.1249 36.8737V37.2385C82.1249 38.3937 81.8665 39.3969 81.3497 40.2481C80.8329 41.0841 80.0805 41.7377 79.0926 42.2089C78.1198 42.6649 76.9342 42.8929 75.5358 42.8929H72.5718ZM69.7903 48V31.2422H73.0278V48H69.7903ZM95.7182 48V31.3562H98.9558V48H95.7182ZM84.7971 48V31.3562H88.0347V48H84.7971ZM87.4419 41.0917V38.2417H96.311V41.0917H87.4419ZM101.413 48L107.09 31.3562H112.38L118.217 48H114.888L109.94 33.5678L111.103 34.0694H108.253L109.439 33.5678L104.651 48H101.413ZM105.38 43.5768L106.406 40.8409H113.155L114.158 43.5768H105.38ZM120.689 48V31.2422H123.926V48H120.689ZM130.858 48L125.75 40.7497H129.376L134.642 48H130.858ZM122.969 42.4369V39.8149H127.21C127.802 39.8149 128.312 39.6933 128.737 39.4501C129.178 39.2069 129.52 38.8649 129.763 38.4241C130.006 37.9833 130.128 37.4817 130.128 36.9193C130.128 36.3417 130.006 35.8325 129.763 35.3917C129.52 34.9509 129.178 34.6089 128.737 34.3657C128.312 34.1226 127.802 34.001 127.21 34.001H122.969V31.2422H126.868C128.205 31.2422 129.36 31.4398 130.333 31.835C131.321 32.2302 132.081 32.8306 132.613 33.6362C133.145 34.4417 133.411 35.4525 133.411 36.6685V37.0333C133.411 38.2645 133.138 39.2753 132.59 40.0657C132.058 40.8561 131.306 41.4489 130.333 41.8441C129.36 42.2393 128.205 42.4369 126.868 42.4369H122.969ZM137.099 48V31.3562H141.522L145.694 41.2969H146.104L150.254 31.3562H154.746V48H151.531V33.7958L151.941 33.8414L147.45 44.6028H144.144L139.629 33.8414L140.062 33.7958V48H137.099ZM157.21 48L162.887 31.3562H168.177L174.014 48H170.685L165.737 33.5678L166.9 34.0694H164.05L165.236 33.5678L160.448 48H157.21ZM161.177 43.5768L162.203 40.8409H168.952L169.955 43.5768H161.177ZM183.341 48.4332C181.837 48.4332 180.545 48.1672 179.465 47.6352C178.386 47.1032 177.505 46.4116 176.821 45.5604C176.152 44.7092 175.658 43.782 175.339 42.7789C175.019 41.7757 174.86 40.8105 174.86 39.8833V39.3817C174.86 38.3481 175.019 37.3297 175.339 36.3265C175.673 35.3233 176.182 34.4113 176.866 33.5906C177.55 32.7698 178.417 32.1162 179.465 31.6298C180.529 31.1282 181.783 30.8774 183.227 30.8774C184.732 30.8774 186.039 31.151 187.149 31.6982C188.274 32.2302 189.171 32.9902 189.839 33.9782C190.508 34.9509 190.911 36.0909 191.048 37.3981H187.787C187.666 36.6381 187.392 35.9997 186.967 35.4829C186.556 34.9509 186.032 34.5557 185.393 34.2974C184.755 34.0238 184.033 33.887 183.227 33.887C182.407 33.887 181.677 34.0314 181.039 34.3201C180.4 34.5937 179.868 34.9889 179.443 35.5057C179.017 36.0225 178.69 36.6305 178.462 37.3297C178.249 38.0289 178.143 38.8041 178.143 39.6553C178.143 40.4761 178.249 41.2361 178.462 41.9353C178.69 42.6345 179.025 43.2501 179.465 43.782C179.906 44.2988 180.446 44.7016 181.084 44.9904C181.738 45.2792 182.49 45.4236 183.341 45.4236C184.588 45.4236 185.637 45.1196 186.488 44.5116C187.354 43.8884 187.879 43.0221 188.061 41.9125H191.321C191.169 43.0981 190.767 44.1848 190.113 45.1728C189.459 46.1608 188.563 46.9512 187.423 47.544C186.283 48.1368 184.922 48.4332 183.341 48.4332ZM197.112 41.6389L192.096 31.3562H195.425L199.255 39.4045L198.525 39.1765H200.691L199.916 39.4045L203.404 31.3562H206.551L201.922 41.6389H197.112ZM197.933 48V41.1373H201.102V48H197.933Z" fill="white"/>
<path d="M213.2 50.0006C212.402 50.0006 211.696 49.864 211.082 49.5907C210.478 49.306 209.971 48.9359 209.561 48.4804C209.151 48.0136 208.844 47.5011 208.639 46.9432C208.434 46.3852 208.332 45.8272 208.332 45.2693V44.996C208.332 44.4152 208.434 43.8516 208.639 43.305C208.855 42.747 209.169 42.2403 209.578 41.7848C210 41.3293 210.512 40.9706 211.116 40.7087C211.719 40.4354 212.414 40.2988 213.2 40.2988C213.985 40.2988 214.68 40.4354 215.283 40.7087C215.887 40.9706 216.394 41.3293 216.804 41.7848C217.225 42.2403 217.538 42.747 217.743 43.305C217.959 43.8516 218.068 44.4152 218.068 44.996V45.2693C218.068 45.8272 217.965 46.3852 217.76 46.9432C217.555 47.5011 217.248 48.0136 216.838 48.4804C216.428 48.9359 215.915 49.306 215.301 49.5907C214.697 49.864 213.997 50.0006 213.2 50.0006ZM213.2 49.1124C213.985 49.1124 214.669 48.9359 215.249 48.5829C215.841 48.2185 216.297 47.7403 216.616 47.1481C216.946 46.5446 217.111 45.8785 217.111 45.1497C217.111 44.3981 216.946 43.7263 216.616 43.1342C216.297 42.5306 215.841 42.0581 215.249 41.7165C214.669 41.3635 213.985 41.187 213.2 41.187C212.414 41.187 211.725 41.3635 211.133 41.7165C210.552 42.0581 210.097 42.5306 209.766 43.1342C209.447 43.7263 209.288 44.3981 209.288 45.1497C209.288 45.8785 209.447 46.5446 209.766 47.1481C210.097 47.7403 210.552 48.2185 211.133 48.5829C211.725 48.9359 212.414 49.1124 213.2 49.1124ZM211.201 47.7118V42.3826H212.465V47.7118H211.201ZM214.344 47.7118L212.96 45.6621H214.293L215.762 47.7118H214.344ZM211.799 46.1062V45.0301H213.268C213.587 45.0301 213.814 44.9618 213.951 44.8252C214.099 44.6885 214.173 44.4949 214.173 44.2444C214.173 43.9825 214.099 43.7889 213.951 43.6637C213.814 43.527 213.587 43.4587 213.268 43.4587H211.799V42.3826H213.182C213.9 42.3826 214.458 42.542 214.856 42.8609C215.255 43.1797 215.454 43.6409 215.454 44.2444C215.454 44.8365 215.255 45.2977 214.856 45.628C214.458 45.9468 213.9 46.1062 213.182 46.1062H211.799Z" fill="white"/>
</svg>
