<svg preserveAspectRatio="none" width="100%" height="100%" overflow="visible" style="display: block;" viewBox="0 0 20 20" fill="none" xmlns="http://www.w3.org/2000/svg">
<g id="SVG">
<path id="Vector" d="M10 4.87207C7.16016 4.87207 4.87109 7.16113 4.87109 10.001C4.87109 12.8408 7.16016 15.1299 10 15.1299C12.8398 15.1299 15.1289 12.8408 15.1289 10.001C15.1289 7.16113 12.8398 4.87207 10 4.87207ZM10 13.3291C8.17188 13.3291 6.67188 11.8408 6.67188 10.001C6.67188 8.16113 8.16016 6.67285 10 6.67285C11.8398 6.67285 13.3281 8.17285 13.3281 10.001C13.3281 11.8291 11.8281 13.3291 10 13.3291ZM16.5312 4.66113C16.5312 5.32129 15.9883 5.86035 15.3281 5.86035C14.6719 5.86035 14.1289 5.32129 14.1289 4.66113C14.1289 4.00098 14.6719 3.46191 15.3281 3.46191C15.9883 3.46191 16.5312 4.00098 16.5312 4.66113ZM19.9297 5.87207C19.8516 4.27051 19.4883 2.85254 18.3086 1.68066C17.1484 0.520508 15.7305 0.149415 14.1289 0.071289C12.4805 -0.0185547 7.53125 -0.0185547 5.87891 0.071289C4.28125 0.149415 2.85938 0.512696 1.69141 1.68066C0.511719 2.85254 0.148438 4.27051 0.0703125 5.87207C-0.0195312 7.52051 -0.0195312 12.4697 0.0703125 14.1221C0.148438 15.7197 0.511719 17.1416 1.69141 18.3096C2.85938 19.4814 4.28125 19.8525 5.87891 19.9307C7.53125 20.0205 12.4805 20.0205 14.1289 19.9307C15.7305 19.8525 17.1484 19.4893 18.3203 18.3096C19.4883 17.1416 19.8594 15.7197 19.9414 14.1221C20.0313 12.4697 20.0313 7.52051 19.9414 5.87207H19.9297ZM17.8008 15.8916C17.4492 16.7627 16.7813 17.4424 15.8984 17.79C14.5781 18.3096 11.4609 18.1924 10 18.1924C8.53906 18.1924 5.42188 18.3096 4.10156 17.79C3.23047 17.4424 2.55078 16.7705 2.19922 15.8916C1.67969 14.5713 1.80078 11.4502 1.80078 9.98926C1.80078 8.53223 1.67969 5.41113 2.19922 4.09082C2.55078 3.21973 3.21875 2.54004 4.10156 2.19238C5.42188 1.67285 8.53906 1.79004 10 1.79004C11.4609 1.79004 14.5781 1.67285 15.8984 2.19238C16.7695 2.54004 17.4492 3.21191 17.8008 4.09082C18.3203 5.41113 18.1992 8.53223 18.1992 9.98926C18.1992 11.4502 18.3203 14.5713 17.8008 15.8916Z" fill="var(--fill-0, white)"/>
</g>
</svg>
