<svg preserveAspectRatio="none" width="100%" height="100%" overflow="visible" style="display: block;" viewBox="0 0 21 20" fill="none" xmlns="http://www.w3.org/2000/svg">
<g id="SVG">
<path id="Vector" d="M19.3086 0H1.48047C0.660156 0 0 0.648438 0 1.44141V18.5586C0 19.3516 0.660156 20 1.48047 20H19.3086C20.1289 20 20.8008 19.3516 20.8008 18.5586V1.44141C20.8008 0.648438 20.1289 0 19.3086 0ZM6.28906 17.1406H3.21094V7.60156H6.30078V17.1406H6.28906ZM4.75 6.28906C3.76172 6.28906 2.96094 5.51953 2.96094 4.57031C2.96094 3.62109 3.76172 2.85156 4.75 2.85156C5.73828 2.85156 6.53906 3.62109 6.53906 4.57031C6.53906 5.51953 5.73828 6.28906 4.75 6.28906ZM17.8516 17.1406H14.7695V12.5C14.7695 11.3906 14.75 9.96875 13.1719 9.96875C11.5898 9.96875 11.3203 11.1797 11.3203 12.4219V17.1406H8.23828V7.60156H11.1992V8.89844H11.2383C11.6484 8.14844 12.6602 7.35938 14.1602 7.35938C17.2813 7.35938 17.8594 9.33984 17.8594 11.9102V17.1406H17.8516Z" fill="var(--fill-0, white)"/>
</g>
</svg>
