<svg preserveAspectRatio="none" width="100%" height="100%" overflow="visible" style="display: block;" viewBox="0 0 29 21" fill="none" xmlns="http://www.w3.org/2000/svg">
<g id="SVG">
<path id="Vector" d="M27.707 3.14062C27.3828 1.90625 26.4258 0.929688 25.1992 0.601562C22.9961 0 14.1406 0 14.1406 0C14.1406 0 5.28516 0 3.07812 0.601562C1.87891 0.929688 0.921875 1.90625 0.59375 3.14062C0 5.375 0 10.0586 0 10.0586C0 10.0586 0 14.7305 0.59375 16.9766C0.921875 18.2109 1.87891 19.1406 3.08984 19.4688C5.29688 20.0703 14.1523 20.0703 14.1523 20.0703C14.1523 20.0703 23.0078 20.0703 25.2109 19.4688C26.4258 19.1406 27.3945 18.2109 27.7188 16.9766C28.3164 14.7422 28.3164 10.0586 28.3164 10.0586C28.3164 10.0586 28.3164 5.38672 27.7188 3.14062H27.707ZM11.2578 14.293V5.8125L18.6562 10.0586L11.2578 14.3047V14.293Z" fill="var(--fill-0, white)"/>
</g>
</svg>
